<?xml version="1.0" encoding="iso-8859-1"?>
<!-- Generator: Adobe Illustrator 24.3.0, SVG Export Plug-In . SVG Version: 6.00 Build 0)  -->
<svg version="1.1" id="Layer_1" xmlns="http://www.w3.org/2000/svg" xmlns:xlink="http://www.w3.org/1999/xlink" x="0px" y="0px"
	 viewBox="0 0 500 500" style="enable-background:new 0 0 500 500;" xml:space="preserve">
<g id="watermark_1_">
	<g>
		<g id="watermark" style="opacity:0.61;">
			<g>
				<g>
					<g>
						<g>
							<polygon style="fill:#FFFFFF;" points="213.765,461.172 208.204,474.017 205.268,474.017 199.726,461.172 202.938,461.172 
								206.846,470.347 210.81,461.172 							"/>
						</g>
						<g>
							<path style="fill:#FFFFFF;" d="M223.507,469.741h-7.469c0.275,1.23,1.321,1.982,2.826,1.982c1.046,0,1.798-0.312,2.477-0.954
								l1.523,1.651c-0.917,1.046-2.294,1.597-4.074,1.597c-3.413,0-5.634-2.147-5.634-5.083c0-2.954,2.257-5.083,5.267-5.083
								c2.899,0,5.138,1.945,5.138,5.12C223.562,469.191,223.526,469.503,223.507,469.741 M216.002,468.071h4.863
								c-0.202-1.248-1.138-2.055-2.422-2.055C217.139,466.016,216.204,466.805,216.002,468.071"/>
						</g>
						<g>
							<path style="fill:#FFFFFF;" d="M224.735,468.934c0-2.973,2.294-5.083,5.505-5.083c2.074,0,3.707,0.899,4.423,2.514
								l-2.22,1.193c-0.532-0.936-1.321-1.358-2.221-1.358c-1.45,0-2.587,1.009-2.587,2.734c0,1.725,1.138,2.734,2.587,2.734
								c0.899,0,1.688-0.404,2.221-1.358l2.22,1.211c-0.716,1.578-2.349,2.495-4.423,2.495
								C227.029,474.017,224.735,471.907,224.735,468.934"/>
						</g>
						<g>
							<path style="fill:#FFFFFF;" d="M242.828,473.393c-0.587,0.422-1.45,0.624-2.331,0.624c-2.33,0-3.688-1.193-3.688-3.542
								v-4.055h-1.523v-2.202h1.523v-2.404h2.863v2.404h2.459v2.202h-2.459v4.019c0,0.844,0.458,1.303,1.229,1.303
								c0.422,0,0.844-0.128,1.156-0.367L242.828,473.393z"/>
						</g>
					</g>
					<g>
						<path style="fill:#FFFFFF;" d="M262.474,463.997v2.643c-0.238-0.018-0.422-0.037-0.642-0.037
							c-1.578,0-2.624,0.862-2.624,2.753v4.661h-2.863v-9.873h2.734v1.303C259.776,464.493,260.951,463.997,262.474,463.997"/>
					</g>
					<g>
						<path style="fill:#FFFFFF;" d="M263.299,472.53l1.009-2.239c1.083,0.789,2.697,1.339,4.239,1.339
							c1.762,0,2.477-0.587,2.477-1.376c0-2.404-7.469-0.752-7.469-5.524c0-2.184,1.762-4,5.413-4c1.615,0,3.267,0.385,4.459,1.138
							l-0.918,2.257c-1.193-0.679-2.422-1.009-3.56-1.009c-1.761,0-2.44,0.66-2.44,1.468c0,2.367,7.468,0.734,7.468,5.45
							c0,2.147-1.78,3.982-5.45,3.982C266.492,474.017,264.437,473.411,263.299,472.53"/>
					</g>
					<g>
						<path style="fill:#FFFFFF;" d="M285.428,469.741h-7.469c0.275,1.23,1.321,1.982,2.826,1.982c1.046,0,1.798-0.312,2.477-0.954
							l1.523,1.651c-0.918,1.046-2.294,1.597-4.074,1.597c-3.413,0-5.634-2.147-5.634-5.083c0-2.954,2.257-5.083,5.267-5.083
							c2.9,0,5.138,1.945,5.138,5.12C285.484,469.191,285.447,469.503,285.428,469.741 M277.923,468.071h4.863
							c-0.202-1.248-1.138-2.055-2.422-2.055C279.061,466.016,278.125,466.805,277.923,468.071"/>
					</g>
					<g>
						<path style="fill:#FFFFFF;" d="M297.007,469.741h-7.469c0.275,1.23,1.321,1.982,2.826,1.982c1.046,0,1.798-0.312,2.477-0.954
							l1.523,1.651c-0.918,1.046-2.294,1.597-4.074,1.597c-3.413,0-5.634-2.147-5.634-5.083c0-2.954,2.257-5.083,5.267-5.083
							c2.899,0,5.138,1.945,5.138,5.12C297.062,469.191,297.025,469.503,297.007,469.741 M289.501,468.071h4.863
							c-0.202-1.248-1.138-2.055-2.422-2.055C290.639,466.016,289.703,466.805,289.501,468.071"/>
					</g>
					<g>
						<polygon style="fill:#FFFFFF;" points="303.208,470.145 301.831,471.503 301.831,474.017 298.969,474.017 298.969,460.401 
							301.831,460.401 301.831,468.108 306.016,464.144 309.429,464.144 305.318,468.328 309.796,474.017 306.327,474.017 						"/>
					</g>
					<g>
						<path style="fill:#FFFFFF;" d="M256.601,475.359L256.601,475.359l-2.86-2.86c-0.435,0.508-0.953,0.943-1.534,1.284
							c-0.092,0.069-0.186,0.136-0.283,0.199l3.027,3.027c0.456,0.456,1.195,0.456,1.65,0
							C257.057,476.554,257.057,475.815,256.601,475.359"/>
					</g>
					<g>
						<path style="fill:#FFFFFF;" d="M249.984,463.244c0.221-0.173,0.495-0.281,0.797-0.281c0.042,0,0.083,0.002,0.124,0.006
							c-0.214-0.156-0.478-0.249-0.764-0.249c-0.395,0-0.744,0.18-0.981,0.458c-0.051,0-0.1,0.006-0.151,0.008
							c0.039-0.077,0.064-0.162,0.064-0.255c0-0.234-0.143-0.434-0.346-0.519c0.087,0.126,0.138,0.279,0.138,0.445
							c0,0.122-0.031,0.237-0.081,0.341c-2.811,0.201-5.03,2.539-5.03,5.4c0,2.993,2.426,5.42,5.42,5.42
							c2.993,0,5.42-2.426,5.42-5.42C254.595,465.879,252.593,463.635,249.984,463.244 M247.983,464.656
							c0.435,0,0.844,0.112,1.199,0.309c0.374-0.245,0.82-0.387,1.299-0.387c0.711,0,1.348,0.312,1.784,0.806
							c-0.435-0.379-1.004-0.61-1.627-0.61c-0.449,0-0.87,0.12-1.234,0.329c-0.079,0.046-0.156,0.096-0.229,0.15
							c-0.065-0.048-0.133-0.093-0.204-0.134c-0.369-0.219-0.8-0.344-1.26-0.344c-0.3,0-0.588,0.054-0.854,0.152
							C247.196,464.754,247.578,464.656,247.983,464.656 M251.772,469.098c0.115,0.305,0.181,0.634,0.181,0.979
							c0,1.534-1.244,2.777-2.778,2.777c-1.534,0-2.777-1.243-2.777-2.777c0-0.345,0.066-0.674,0.181-0.979
							c-0.62-0.382-1.035-1.064-1.035-1.846c0-1.197,0.971-2.168,2.168-2.168c0.565,0,1.078,0.218,1.463,0.572
							c0.386-0.354,0.899-0.572,1.464-0.572c1.197,0,2.168,0.971,2.168,2.168C252.807,468.034,252.392,468.716,251.772,469.098"/>
					</g>
					<g>
						<path style="fill:#FFFFFF;" d="M251.666,467.061c0,0.497-0.404,0.901-0.901,0.901c-0.497,0-0.901-0.404-0.901-0.901
							s0.404-0.901,0.901-0.901c0.101,0,0.197,0.017,0.287,0.047c-0.03,0.062-0.045,0.132-0.045,0.204
							c0,0.273,0.221,0.494,0.494,0.494c0.05,0,0.099-0.008,0.146-0.022C251.66,466.941,251.666,467,251.666,467.061"/>
					</g>
					<g>
						<path style="fill:#FFFFFF;" d="M248.255,467.061c0,0.376-0.305,0.681-0.681,0.681c-0.376,0-0.681-0.305-0.681-0.681
							s0.305-0.681,0.681-0.681c0.076,0,0.149,0.013,0.217,0.035c-0.023,0.047-0.034,0.1-0.034,0.155
							c0,0.206,0.167,0.374,0.374,0.374c0.038,0,0.075-0.006,0.11-0.017C248.25,466.97,248.255,467.015,248.255,467.061"/>
					</g>
					<g>
						<g>
							<g>
								<rect x="242.908" y="467.83" style="fill:#FFFFFF;" width="0.616" height="0.616"/>
							</g>
							<g>
								<rect x="254.827" y="467.83" style="fill:#FFFFFF;" width="0.616" height="0.616"/>
							</g>
							<g>
								<path style="fill:#FFFFFF;" d="M255.205,468.082h-0.14c0-3.248-2.642-5.89-5.89-5.89c-3.248,0-5.89,2.642-5.89,5.89h-0.14
									c0-1.611,0.627-3.125,1.766-4.264c1.139-1.139,2.653-1.766,4.264-1.766c1.611,0,3.125,0.627,4.264,1.766
									C254.578,464.957,255.205,466.471,255.205,468.082"/>
							</g>
						</g>
						<g>
							<rect x="248.868" y="461.814" style="fill:#FFFFFF;" width="0.616" height="0.616"/>
						</g>
						<g>
							<rect x="244.95" y="462.052" style="fill:#FFFFFF;" width="8.45" height="0.14"/>
						</g>
						<g>
							<path style="fill:#FFFFFF;" d="M245.174,462.15c0,0.108-0.088,0.196-0.196,0.196c-0.108,0-0.196-0.088-0.196-0.196
								c0-0.108,0.088-0.196,0.196-0.196C245.086,461.954,245.174,462.042,245.174,462.15"/>
						</g>
						<g>
							<path style="fill:#FFFFFF;" d="M253.596,462.15c0,0.108-0.088,0.196-0.196,0.196c-0.108,0-0.196-0.088-0.196-0.196
								c0-0.108,0.088-0.196,0.196-0.196C253.509,461.954,253.596,462.042,253.596,462.15"/>
						</g>
					</g>
				</g>
				<g>
					<path style="fill:#FFFFFF;" d="M314.356,473.409c0,1.559-2.364,1.559-2.364,0C311.993,471.851,314.356,471.851,314.356,473.409
						z"/>
				</g>
				<g>
					<g>
						<g>
							<path style="fill:#FFFFFF;" d="M161.739,466.549l1.772,6.088l1.855-6.088h2.215l-2.823,8.14h-2.33l-0.837-2.396l-0.722-2.708
								l-0.722,2.708l-0.837,2.396h-2.33l-2.839-8.14h2.231l1.855,6.088l1.756-6.088H161.739z"/>
						</g>
						<g>
							<path style="fill:#FFFFFF;" d="M176.713,466.549l1.772,6.088l1.855-6.088h2.215l-2.823,8.14h-2.33l-0.837-2.396l-0.722-2.708
								l-0.722,2.708l-0.837,2.396h-2.33l-2.839-8.14h2.231l1.855,6.088l1.756-6.088H176.713z"/>
						</g>
						<g>
							<path style="fill:#FFFFFF;" d="M191.687,466.549l1.772,6.088l1.855-6.088h2.215l-2.823,8.14h-2.33l-0.837-2.396l-0.722-2.708
								l-0.722,2.708l-0.837,2.396h-2.33l-2.839-8.14h2.231l1.855,6.088l1.756-6.088H191.687z"/>
						</g>
					</g>
					<g>
						<path style="fill:#FFFFFF;" d="M200.908,473.52c0,1.559-2.364,1.559-2.364,0C198.545,471.962,200.908,471.962,200.908,473.52z
							"/>
					</g>
					<g>
						<path style="fill:#FFFFFF;" d="M322.71,473.409c-0.935,0.919-1.919,1.28-3.117,1.28c-2.346,0-4.3-1.411-4.3-4.282
							s1.953-4.284,4.3-4.284c1.149,0,2.035,0.329,2.921,1.199l-1.264,1.329c-0.476-0.428-1.066-0.64-1.623-0.64
							c-1.346,0-2.33,0.985-2.33,2.396c0,1.542,1.05,2.362,2.297,2.362c0.64,0,1.28-0.18,1.772-0.672L322.71,473.409z"/>
					</g>
					<g>
						<path style="fill:#FFFFFF;" d="M331.805,470.472c0,2.33-1.591,4.217-4.217,4.217c-2.626,0-4.201-1.887-4.201-4.217
							c0-2.314,1.609-4.217,4.185-4.217C330.149,466.255,331.805,468.158,331.805,470.472z M325.389,470.472
							c0,1.231,0.739,2.38,2.199,2.38c1.46,0,2.199-1.149,2.199-2.38c0-1.215-0.854-2.396-2.199-2.396
							C326.144,468.077,325.389,469.258,325.389,470.472z"/>
					</g>
					<g>
						<path style="fill:#FFFFFF;" d="M338.572,474.689v-4.332c0-1.068-0.559-2.035-1.658-2.035c-1.082,0-1.722,0.967-1.722,2.035
							v4.332h-2.003v-8.107h1.855l0.148,0.985c0.426-0.82,1.362-1.116,2.133-1.116c0.969,0,1.937,0.394,2.396,1.51
							c0.723-1.149,1.658-1.478,2.708-1.478c2.297,0,3.43,1.412,3.43,3.84v4.365h-2.003v-4.365c0-1.066-0.442-1.97-1.526-1.97
							c-1.082,0-1.756,0.935-1.756,2.003v4.332H338.572z"/>
					</g>
				</g>
			</g>
		</g>
		<g style="opacity:0.61;">
			<g>
				<g>
					<path style="fill:#FFFFFF;" d="M345.988,431.299c-0.006-1.224-0.959-2.121-2.189-2.14c-0.924-0.014-0.832,0.12-0.834-0.867
						c-0.003-1.097-0.007-2.194,0.003-3.292c0.003-0.379-0.112-0.691-0.362-0.976c-2.342-2.668-4.678-5.342-7.019-8.011
						c-0.12-0.137-0.275-0.244-0.414-0.366c-6.214,0-12.427,0-18.641,0c-0.794,0.293-1.14,0.868-1.138,1.709
						c0.01,3.748,0.004,7.496,0.004,11.243c0,0.556-0.003,0.589-0.55,0.551c-1.497-0.102-2.516,0.986-2.497,2.492
						c0.044,3.476,0.013,6.953,0.014,10.429c0.001,1.58,0.867,2.443,2.45,2.449c0.582,0.002,0.582,0.002,0.582,0.6
						c0,2.219-0.001,4.438,0.001,6.657c0.001,1.192,0.58,1.771,1.768,1.771c8.013,0.001,16.027,0.001,24.04,0
						c1.168,0,1.755-0.583,1.757-1.745c0.002-2.256,0-4.512,0.001-6.768c0-0.512,0.002-0.511,0.52-0.515
						c0.271-0.002,0.541,0.008,0.809-0.058c0.996-0.246,1.69-1.044,1.694-2.069C346.003,438.696,346.005,434.997,345.988,431.299z
						 M317.537,417.162c5.337,0,10.674,0,16.01,0c0.548,0,0.554,0.007,0.554,0.561c0.001,2.243-0.001,4.486,0.001,6.73
						c0.001,0.811,0.249,1.059,1.06,1.059c1.91,0.001,3.821,0,5.731,0.001c0.458,0,0.479,0.021,0.481,0.483
						c0.003,0.887,0.002,1.775,0,2.662c-0.001,0.477-0.024,0.498-0.504,0.499c-3.895,0.001-7.79,0-11.684,0
						c-3.882,0-7.765,0-11.647,0c-0.55,0-0.552-0.001-0.552-0.561c-0.001-3.624-0.001-7.247,0-10.871
						C316.987,417.166,316.991,417.162,317.537,417.162z M340.822,451.579c-3.883,0.001-7.766,0-11.65,0c-3.871,0-7.742,0-11.613,0
						c-0.572,0-0.574-0.002-0.574-0.579c-0.001-1.997-0.001-3.994,0.001-5.991c0-0.464,0.023-0.486,0.478-0.487
						c7.803-0.001,15.607-0.001,23.41,0c0.478,0,0.499,0.02,0.499,0.503c0.002,1.997,0.001,3.994,0,5.991
						C341.375,451.574,341.37,451.579,340.822,451.579z"/>
				</g>
				<g>
					<g>
						<rect x="327.418" y="417.053" style="fill:#FFFFFF;" width="1.757" height="1.054"/>
					</g>
					<g>
						<rect x="325.662" y="418.107" style="fill:#FFFFFF;" width="1.757" height="1.054"/>
					</g>
					<g>
						<rect x="327.418" y="419.161" style="fill:#FFFFFF;" width="1.757" height="1.054"/>
					</g>
					<g>
						<rect x="325.662" y="420.215" style="fill:#FFFFFF;" width="1.757" height="1.054"/>
					</g>
					<g>
						<rect x="327.418" y="421.269" style="fill:#FFFFFF;" width="1.757" height="1.054"/>
					</g>
					<g>
						<rect x="325.662" y="422.323" style="fill:#FFFFFF;" width="1.757" height="1.054"/>
					</g>
					<g>
						<rect x="327.418" y="423.378" style="fill:#FFFFFF;" width="1.757" height="1.054"/>
					</g>
					<g>
						<rect x="325.662" y="424.432" style="fill:#FFFFFF;" width="1.757" height="1.054"/>
					</g>
					<g>
						<rect x="327.418" y="425.486" style="fill:#FFFFFF;" width="1.757" height="1.054"/>
					</g>
					<g>
						<rect x="325.662" y="426.54" style="fill:#FFFFFF;" width="1.757" height="1.054"/>
					</g>
					<g>
						<rect x="327.418" y="427.594" style="fill:#FFFFFF;" width="1.757" height="1.054"/>
					</g>
					<g>
						<rect x="325.662" y="428.648" style="fill:#FFFFFF;" width="1.757" height="1.054"/>
					</g>
				</g>
			</g>
			<g>
				<path style="fill:#FFFFFF;" d="M187.637,431.299c-0.006-1.224-0.959-2.121-2.189-2.14c-0.924-0.014-0.832,0.12-0.834-0.867
					c-0.003-1.097-0.007-2.194,0.003-3.292c0.003-0.379-0.112-0.691-0.362-0.976c-2.342-2.668-4.678-5.342-7.019-8.011
					c-0.12-0.137-0.275-0.244-0.414-0.366c-6.214,0-12.427,0-18.641,0c-0.794,0.293-1.14,0.868-1.138,1.709
					c0.01,3.748,0.004,7.496,0.004,11.243c0,0.556-0.003,0.589-0.55,0.551c-1.497-0.102-2.516,0.986-2.497,2.492
					c0.044,3.476,0.013,6.953,0.014,10.429c0.001,1.58,0.867,2.443,2.45,2.449c0.582,0.002,0.582,0.002,0.582,0.6
					c0,2.219-0.001,4.438,0.001,6.657c0.001,1.192,0.58,1.771,1.768,1.771c8.013,0.001,16.027,0.001,24.04,0
					c1.168,0,1.755-0.583,1.757-1.745c0.002-2.256,0-4.512,0.001-6.768c0-0.512,0.002-0.511,0.52-0.515
					c0.271-0.002,0.541,0.008,0.809-0.058c0.996-0.246,1.69-1.044,1.694-2.069C187.652,438.696,187.655,434.997,187.637,431.299z
					 M159.187,417.162c5.337,0,10.674,0,16.01,0c0.548,0,0.554,0.007,0.554,0.561c0.001,2.243-0.001,4.486,0.001,6.73
					c0.001,0.811,0.249,1.059,1.06,1.059c1.91,0.001,3.821,0,5.731,0.001c0.458,0,0.479,0.021,0.481,0.483
					c0.003,0.887,0.002,1.775,0,2.662c-0.001,0.477-0.024,0.498-0.504,0.499c-3.895,0.001-7.79,0-11.684,0
					c-3.882,0-7.765,0-11.647,0c-0.55,0-0.552-0.001-0.552-0.561c-0.001-3.624-0.001-7.247,0-10.871
					C158.636,417.166,158.64,417.162,159.187,417.162z M182.472,451.579c-3.883,0.001-7.766,0-11.65,0c-3.871,0-7.742,0-11.613,0
					c-0.572,0-0.574-0.002-0.574-0.579c-0.001-1.997-0.001-3.994,0.001-5.991c0-0.464,0.023-0.486,0.478-0.487
					c7.803-0.001,15.607-0.001,23.41,0c0.478,0,0.499,0.02,0.499,0.503c0.002,1.997,0.001,3.994,0,5.991
					C183.024,451.574,183.019,451.579,182.472,451.579z"/>
			</g>
			<g>
				<path style="fill:#FFFFFF;" d="M159.779,440.669v-7.897h2.779c0.375,0,0.726,0.061,1.053,0.182
					c0.327,0.121,0.612,0.292,0.855,0.513c0.242,0.221,0.434,0.483,0.573,0.789c0.14,0.305,0.21,0.642,0.21,1.009
					c0,0.375-0.07,0.715-0.21,1.02c-0.14,0.305-0.331,0.568-0.573,0.789c-0.243,0.221-0.528,0.392-0.855,0.513
					c-0.327,0.121-0.678,0.182-1.053,0.182h-1.29v2.901H159.779z M162.58,436.356c0.39,0,0.684-0.111,0.882-0.331
					c0.199-0.22,0.298-0.474,0.298-0.761c0-0.14-0.024-0.276-0.072-0.408c-0.048-0.132-0.121-0.248-0.221-0.347
					c-0.099-0.099-0.223-0.178-0.37-0.237c-0.147-0.059-0.32-0.089-0.518-0.089h-1.312v2.173H162.58z"/>
				<path style="fill:#FFFFFF;" d="M166.308,432.771h1.731l3.177,5.294h0.088l-0.088-1.522v-3.772h1.478v7.897h-1.566l-3.353-5.592
					h-0.088l0.088,1.522v4.07h-1.467V432.771z"/>
				<path style="fill:#FFFFFF;" d="M177.922,436.334h3.872c0.022,0.089,0.04,0.195,0.055,0.32c0.014,0.125,0.022,0.25,0.022,0.375
					c0,0.507-0.077,0.985-0.231,1.434c-0.154,0.449-0.397,0.849-0.728,1.202c-0.353,0.375-0.776,0.666-1.268,0.871
					c-0.493,0.206-1.055,0.309-1.688,0.309c-0.574,0-1.114-0.103-1.622-0.309c-0.507-0.206-0.948-0.492-1.323-0.86
					c-0.375-0.367-0.673-0.803-0.894-1.307c-0.221-0.504-0.331-1.053-0.331-1.649c0-0.595,0.11-1.145,0.331-1.649
					c0.221-0.504,0.518-0.939,0.894-1.307c0.375-0.367,0.816-0.654,1.323-0.86c0.507-0.206,1.048-0.309,1.622-0.309
					c0.64,0,1.211,0.11,1.715,0.331c0.504,0.221,0.935,0.526,1.296,0.915l-1.025,1.004c-0.258-0.272-0.544-0.48-0.861-0.623
					c-0.316-0.143-0.695-0.215-1.136-0.215c-0.361,0-0.703,0.065-1.026,0.193c-0.324,0.129-0.607,0.311-0.85,0.546
					c-0.242,0.235-0.436,0.52-0.579,0.855c-0.143,0.335-0.215,0.708-0.215,1.119c0,0.412,0.072,0.785,0.215,1.12
					c0.143,0.335,0.338,0.62,0.584,0.855c0.246,0.235,0.531,0.418,0.855,0.546c0.323,0.129,0.669,0.193,1.037,0.193
					c0.419,0,0.773-0.061,1.064-0.182c0.29-0.121,0.538-0.278,0.744-0.469c0.148-0.132,0.275-0.3,0.381-0.502
					c0.106-0.202,0.189-0.428,0.248-0.678h-2.482V436.334z"/>
			</g>
			<g>
				<path style="fill:#FFFFFF;" d="M224.019,431.299c-0.006-1.224-0.959-2.121-2.189-2.14c-0.924-0.014-0.832,0.12-0.834-0.867
					c-0.003-1.097-0.007-2.194,0.003-3.292c0.003-0.379-0.112-0.691-0.362-0.976c-2.342-2.668-4.678-5.342-7.019-8.011
					c-0.12-0.137-0.275-0.244-0.414-0.366c-6.214,0-12.427,0-18.641,0c-0.794,0.293-1.14,0.868-1.138,1.709
					c0.01,3.748,0.004,7.496,0.004,11.243c0,0.556-0.003,0.589-0.55,0.551c-1.497-0.102-2.516,0.986-2.497,2.492
					c0.044,3.476,0.013,6.953,0.014,10.429c0.001,1.58,0.867,2.443,2.45,2.449c0.582,0.002,0.582,0.002,0.582,0.6
					c0,2.219-0.001,4.438,0.001,6.657c0.001,1.192,0.58,1.771,1.768,1.771c8.013,0.001,16.027,0.001,24.04,0
					c1.168,0,1.755-0.583,1.757-1.745c0.002-2.256,0-4.512,0.001-6.768c0-0.512,0.002-0.511,0.52-0.515
					c0.271-0.002,0.541,0.008,0.809-0.058c0.997-0.246,1.69-1.044,1.694-2.069C224.034,438.696,224.036,434.997,224.019,431.299z
					 M195.568,417.162c5.337,0,10.674,0,16.01,0c0.548,0,0.554,0.007,0.554,0.561c0.001,2.243-0.001,4.486,0.001,6.73
					c0.001,0.811,0.249,1.059,1.06,1.059c1.91,0.001,3.821,0,5.731,0.001c0.458,0,0.479,0.021,0.481,0.483
					c0.003,0.887,0.002,1.775,0,2.662c-0.001,0.477-0.024,0.498-0.504,0.499c-3.895,0.001-7.79,0-11.684,0
					c-3.882,0-7.765,0-11.647,0c-0.55,0-0.552-0.001-0.552-0.561c-0.001-3.624-0.001-7.247,0-10.871
					C195.018,417.166,195.022,417.162,195.568,417.162z M218.854,451.579c-3.883,0.001-7.766,0-11.65,0c-3.871,0-7.742,0-11.613,0
					c-0.572,0-0.574-0.002-0.574-0.579c-0.001-1.997-0.001-3.994,0.001-5.991c0-0.464,0.023-0.486,0.478-0.487
					c7.803-0.001,15.607-0.001,23.41,0c0.478,0,0.499,0.02,0.499,0.503c0.002,1.997,0.001,3.994,0,5.991
					C219.406,451.574,219.401,451.579,218.854,451.579z"/>
			</g>
			<g>
				<path style="fill:#FFFFFF;" d="M205.111,432.771h1.699l2.967,7.897h-1.644l-0.651-1.886h-3.044l-0.651,1.886h-1.643
					L205.111,432.771z M206.997,437.415l-0.706-1.974l-0.287-0.96h-0.088l-0.287,0.96l-0.706,1.974H206.997z"/>
				<path style="fill:#FFFFFF;" d="M211.331,434.536c-0.125,0-0.245-0.024-0.359-0.072c-0.114-0.048-0.213-0.114-0.298-0.199
					c-0.084-0.084-0.151-0.182-0.198-0.292c-0.048-0.11-0.072-0.232-0.072-0.364s0.024-0.254,0.072-0.364
					c0.048-0.11,0.114-0.208,0.198-0.292c0.084-0.084,0.184-0.151,0.298-0.198c0.114-0.048,0.233-0.072,0.359-0.072
					c0.257,0,0.478,0.09,0.662,0.27c0.184,0.181,0.276,0.399,0.276,0.656s-0.092,0.476-0.276,0.656
					C211.809,434.446,211.589,434.536,211.331,434.536z M210.615,440.669v-5.404h1.445v5.404H210.615z"/>
			</g>
			<g>
				<path style="fill:#FFFFFF;" d="M261.044,431.299c-0.006-1.224-0.959-2.121-2.189-2.14c-0.924-0.014-0.832,0.12-0.834-0.867
					c-0.003-1.097-0.007-2.194,0.003-3.292c0.003-0.379-0.112-0.691-0.362-0.976c-2.342-2.668-4.678-5.342-7.019-8.011
					c-0.12-0.137-0.275-0.244-0.414-0.366c-6.214,0-12.427,0-18.641,0c-0.794,0.293-1.14,0.868-1.138,1.709
					c0.01,3.748,0.004,7.496,0.004,11.243c0,0.556-0.003,0.589-0.55,0.551c-1.497-0.102-2.516,0.986-2.497,2.492
					c0.044,3.476,0.013,6.953,0.014,10.429c0.001,1.58,0.867,2.443,2.45,2.449c0.582,0.002,0.582,0.002,0.582,0.6
					c0,2.219-0.001,4.438,0.001,6.657c0.001,1.192,0.58,1.771,1.768,1.771c8.013,0.001,16.027,0.001,24.04,0
					c1.168,0,1.755-0.583,1.757-1.745c0.002-2.256,0-4.512,0.001-6.768c0-0.512,0.002-0.511,0.52-0.515
					c0.271-0.002,0.541,0.008,0.809-0.058c0.996-0.246,1.69-1.044,1.694-2.069C261.059,438.696,261.061,434.997,261.044,431.299z
					 M232.593,417.162c5.337,0,10.674,0,16.01,0c0.548,0,0.554,0.007,0.554,0.561c0.001,2.243-0.001,4.486,0.001,6.73
					c0.001,0.811,0.249,1.059,1.06,1.059c1.91,0.001,3.821,0,5.731,0.001c0.458,0,0.479,0.021,0.481,0.483
					c0.003,0.887,0.002,1.775,0,2.662c-0.001,0.477-0.024,0.498-0.504,0.499c-3.895,0.001-7.79,0-11.684,0
					c-3.882,0-7.765,0-11.647,0c-0.55,0-0.552-0.001-0.552-0.561c-0.001-3.624-0.001-7.247,0-10.871
					C232.042,417.166,232.047,417.162,232.593,417.162z M255.878,451.579c-3.883,0.001-7.766,0-11.65,0c-3.871,0-7.742,0-11.613,0
					c-0.572,0-0.574-0.002-0.574-0.579c-0.001-1.997-0.001-3.994,0.001-5.991c0-0.464,0.023-0.486,0.478-0.487
					c7.803-0.001,15.607-0.001,23.41,0c0.478,0,0.499,0.02,0.499,0.503c0.002,1.997,0.001,3.994,0,5.991
					C256.431,451.574,256.426,451.579,255.878,451.579z"/>
			</g>
			<g>
				<path style="fill:#FFFFFF;" d="M236.361,440.845c-0.338,0-0.662-0.048-0.971-0.143c-0.309-0.095-0.592-0.239-0.849-0.43
					c-0.257-0.191-0.481-0.425-0.673-0.7c-0.191-0.276-0.342-0.597-0.452-0.965l1.401-0.551c0.103,0.397,0.283,0.726,0.54,0.987
					c0.257,0.261,0.596,0.392,1.015,0.392c0.154,0,0.303-0.02,0.447-0.061c0.143-0.04,0.272-0.099,0.386-0.176
					s0.204-0.175,0.27-0.292c0.066-0.118,0.099-0.254,0.099-0.408c0-0.147-0.026-0.279-0.077-0.397
					c-0.051-0.117-0.138-0.227-0.259-0.331c-0.121-0.103-0.28-0.202-0.475-0.298c-0.195-0.095-0.435-0.195-0.722-0.298l-0.485-0.176
					c-0.213-0.073-0.429-0.173-0.645-0.298c-0.217-0.125-0.413-0.276-0.59-0.452c-0.177-0.176-0.322-0.384-0.436-0.623
					c-0.114-0.239-0.171-0.509-0.171-0.81c0-0.309,0.06-0.597,0.182-0.866c0.121-0.268,0.294-0.503,0.518-0.706
					c0.224-0.202,0.492-0.36,0.805-0.474s0.66-0.171,1.042-0.171c0.397,0,0.74,0.053,1.031,0.16
					c0.291,0.107,0.537,0.243,0.739,0.408c0.202,0.165,0.366,0.348,0.491,0.546c0.125,0.199,0.217,0.386,0.276,0.563l-1.312,0.551
					c-0.074-0.221-0.208-0.419-0.402-0.596c-0.195-0.176-0.462-0.265-0.8-0.265c-0.324,0-0.592,0.075-0.805,0.226
					c-0.213,0.151-0.32,0.348-0.32,0.59c0,0.235,0.103,0.436,0.309,0.601c0.206,0.165,0.533,0.325,0.982,0.48l0.497,0.165
					c0.316,0.111,0.605,0.237,0.866,0.381c0.261,0.143,0.485,0.314,0.673,0.513c0.187,0.199,0.331,0.425,0.43,0.678
					c0.1,0.254,0.149,0.546,0.149,0.877c0,0.412-0.083,0.767-0.248,1.064c-0.165,0.298-0.377,0.542-0.634,0.734
					c-0.258,0.191-0.548,0.335-0.872,0.43C236.986,440.797,236.67,440.845,236.361,440.845z"/>
				<path style="fill:#FFFFFF;" d="M239.516,432.771h1.61l1.633,4.754l0.287,1.015h0.088l0.309-1.015l1.699-4.754h1.61l-2.879,7.897
					h-1.566L239.516,432.771z"/>
				<path style="fill:#FFFFFF;" d="M251.097,436.334h3.871c0.022,0.089,0.04,0.195,0.055,0.32c0.015,0.125,0.023,0.25,0.023,0.375
					c0,0.507-0.078,0.985-0.232,1.434c-0.154,0.449-0.397,0.849-0.728,1.202c-0.353,0.375-0.775,0.666-1.268,0.871
					c-0.493,0.206-1.055,0.309-1.688,0.309c-0.574,0-1.114-0.103-1.621-0.309c-0.507-0.206-0.949-0.492-1.324-0.86
					c-0.375-0.367-0.673-0.803-0.894-1.307c-0.22-0.504-0.331-1.053-0.331-1.649c0-0.595,0.11-1.145,0.331-1.649
					c0.221-0.504,0.518-0.939,0.894-1.307c0.375-0.367,0.816-0.654,1.324-0.86c0.507-0.206,1.047-0.309,1.621-0.309
					c0.64,0,1.211,0.11,1.715,0.331c0.504,0.221,0.936,0.526,1.296,0.915l-1.026,1.004c-0.257-0.272-0.544-0.48-0.861-0.623
					c-0.316-0.143-0.694-0.215-1.136-0.215c-0.36,0-0.702,0.065-1.026,0.193c-0.323,0.129-0.607,0.311-0.849,0.546
					c-0.243,0.235-0.436,0.52-0.579,0.855c-0.143,0.335-0.215,0.708-0.215,1.119c0,0.412,0.072,0.785,0.215,1.12
					c0.143,0.335,0.338,0.62,0.585,0.855c0.246,0.235,0.531,0.418,0.854,0.546c0.324,0.129,0.669,0.193,1.037,0.193
					c0.419,0,0.774-0.061,1.064-0.182c0.29-0.121,0.539-0.278,0.745-0.469c0.147-0.132,0.274-0.3,0.38-0.502
					c0.107-0.202,0.189-0.428,0.248-0.678h-2.482V436.334z"/>
			</g>
			<g>
				<path style="fill:#FFFFFF;" d="M297.3,431.299c-0.006-1.224-0.959-2.121-2.189-2.14c-0.924-0.014-0.832,0.12-0.834-0.867
					c-0.003-1.097-0.007-2.194,0.003-3.292c0.003-0.379-0.112-0.691-0.362-0.976c-2.342-2.668-4.678-5.342-7.019-8.011
					c-0.12-0.137-0.275-0.244-0.414-0.366c-6.214,0-12.427,0-18.641,0c-0.794,0.293-1.14,0.868-1.138,1.709
					c0.01,3.748,0.004,7.496,0.004,11.243c0,0.556-0.003,0.589-0.55,0.551c-1.497-0.102-2.516,0.986-2.497,2.492
					c0.044,3.476,0.013,6.953,0.014,10.429c0.001,1.58,0.867,2.443,2.45,2.449c0.582,0.002,0.582,0.002,0.582,0.6
					c0,2.219-0.001,4.438,0.001,6.657c0.001,1.192,0.58,1.771,1.768,1.771c8.013,0.001,16.027,0.001,24.04,0
					c1.168,0,1.755-0.583,1.757-1.745c0.002-2.256,0-4.512,0.001-6.768c0-0.512,0.002-0.511,0.52-0.515
					c0.271-0.002,0.541,0.008,0.809-0.058c0.996-0.246,1.69-1.044,1.694-2.069C297.315,438.696,297.318,434.997,297.3,431.299z
					 M268.85,417.162c5.337,0,10.674,0,16.01,0c0.548,0,0.554,0.007,0.554,0.561c0.001,2.243-0.001,4.486,0.001,6.73
					c0.001,0.811,0.249,1.059,1.06,1.059c1.91,0.001,3.821,0,5.731,0.001c0.458,0,0.479,0.021,0.481,0.483
					c0.003,0.887,0.002,1.775,0,2.662c-0.001,0.477-0.024,0.498-0.504,0.499c-3.895,0.001-7.79,0-11.684,0
					c-3.882,0-7.765,0-11.647,0c-0.55,0-0.552-0.001-0.552-0.561c-0.001-3.624-0.001-7.247,0-10.871
					C268.299,417.166,268.303,417.162,268.85,417.162z M292.135,451.579c-3.883,0.001-7.766,0-11.65,0c-3.871,0-7.742,0-11.613,0
					c-0.572,0-0.574-0.002-0.574-0.579c-0.001-1.997-0.001-3.994,0.001-5.991c0-0.464,0.023-0.486,0.478-0.487
					c7.803-0.001,15.607-0.001,23.41,0c0.478,0,0.499,0.02,0.499,0.503c0.001,1.997,0.001,3.994,0,5.991
					C292.687,451.574,292.682,451.579,292.135,451.579z"/>
			</g>
			<g>
				<path style="fill:#FFFFFF;" d="M272.966,434.183v1.831h3.165v1.412h-3.165v1.831h3.518v1.412h-5.007v-7.897h5.007v1.412H272.966
					z"/>
				<path style="fill:#FFFFFF;" d="M277.852,440.669v-7.897h2.779c0.375,0,0.726,0.061,1.053,0.182
					c0.327,0.121,0.612,0.292,0.855,0.513c0.243,0.221,0.434,0.483,0.574,0.789c0.14,0.305,0.209,0.642,0.209,1.009
					c0,0.375-0.07,0.715-0.209,1.02c-0.14,0.305-0.331,0.568-0.574,0.789c-0.243,0.221-0.528,0.392-0.855,0.513
					c-0.327,0.121-0.678,0.182-1.053,0.182h-1.29v2.901H277.852z M280.653,436.356c0.389,0,0.684-0.111,0.882-0.331
					c0.199-0.22,0.298-0.474,0.298-0.761c0-0.14-0.024-0.276-0.072-0.408c-0.048-0.132-0.121-0.248-0.221-0.347
					c-0.099-0.099-0.222-0.178-0.37-0.237c-0.147-0.059-0.32-0.089-0.518-0.089h-1.312v2.173H280.653z"/>
				<path style="fill:#FFFFFF;" d="M286.797,440.845c-0.338,0-0.662-0.048-0.971-0.143c-0.309-0.095-0.592-0.239-0.849-0.43
					c-0.257-0.191-0.482-0.425-0.673-0.7c-0.191-0.276-0.342-0.597-0.452-0.965l1.401-0.551c0.103,0.397,0.283,0.726,0.541,0.987
					c0.257,0.261,0.595,0.392,1.015,0.392c0.154,0,0.303-0.02,0.447-0.061c0.143-0.04,0.272-0.099,0.386-0.176
					c0.114-0.077,0.204-0.175,0.27-0.292c0.066-0.118,0.1-0.254,0.1-0.408c0-0.147-0.026-0.279-0.077-0.397
					c-0.051-0.117-0.138-0.227-0.259-0.331c-0.121-0.103-0.279-0.202-0.474-0.298c-0.195-0.095-0.436-0.195-0.723-0.298
					l-0.485-0.176c-0.213-0.073-0.428-0.173-0.645-0.298c-0.217-0.125-0.414-0.276-0.59-0.452c-0.176-0.176-0.322-0.384-0.436-0.623
					c-0.114-0.239-0.171-0.509-0.171-0.81c0-0.309,0.061-0.597,0.182-0.866c0.121-0.268,0.294-0.503,0.518-0.706
					c0.224-0.202,0.493-0.36,0.805-0.474c0.312-0.114,0.66-0.171,1.042-0.171c0.397,0,0.741,0.053,1.031,0.16
					c0.29,0.107,0.537,0.243,0.739,0.408c0.202,0.165,0.365,0.348,0.491,0.546c0.125,0.199,0.217,0.386,0.276,0.563l-1.312,0.551
					c-0.074-0.221-0.208-0.419-0.403-0.596c-0.195-0.176-0.462-0.265-0.799-0.265c-0.324,0-0.592,0.075-0.805,0.226
					c-0.213,0.151-0.32,0.348-0.32,0.59c0,0.235,0.103,0.436,0.309,0.601c0.206,0.165,0.533,0.325,0.982,0.48l0.496,0.165
					c0.316,0.111,0.605,0.237,0.866,0.381c0.261,0.143,0.485,0.314,0.673,0.513c0.187,0.199,0.331,0.425,0.43,0.678
					c0.099,0.254,0.149,0.546,0.149,0.877c0,0.412-0.083,0.767-0.248,1.064c-0.165,0.298-0.377,0.542-0.634,0.734
					c-0.258,0.191-0.548,0.335-0.872,0.43C287.422,440.797,287.105,440.845,286.797,440.845z"/>
			</g>
			<g>
				<path style="fill:#FFFFFF;" d="M321.394,439.168l4.004-4.985h-3.827v-1.412h5.559v1.5l-3.96,4.985h4.004v1.412h-5.779V439.168z"
					/>
				<path style="fill:#FFFFFF;" d="M328.409,432.771h1.489v7.897h-1.489V432.771z"/>
				<path style="fill:#FFFFFF;" d="M331.486,440.669v-7.897h2.779c0.375,0,0.726,0.061,1.053,0.182
					c0.327,0.121,0.612,0.292,0.855,0.513s0.434,0.483,0.574,0.789c0.14,0.305,0.209,0.642,0.209,1.009
					c0,0.375-0.07,0.715-0.209,1.02c-0.14,0.305-0.331,0.568-0.574,0.789c-0.243,0.221-0.528,0.392-0.855,0.513
					c-0.327,0.121-0.678,0.182-1.053,0.182h-1.29v2.901H331.486z M334.288,436.356c0.389,0,0.684-0.111,0.882-0.331
					c0.199-0.22,0.298-0.474,0.298-0.761c0-0.14-0.024-0.276-0.072-0.408c-0.048-0.132-0.121-0.248-0.221-0.347
					c-0.099-0.099-0.222-0.178-0.37-0.237c-0.147-0.059-0.32-0.089-0.518-0.089h-1.312v2.173H334.288z"/>
			</g>
		</g>
		<g style="opacity:0.61;">
			<path style="fill:#FFFFFF;" d="M300.133,433.27h9.067v2.242h-9.067V433.27z M300.133,437.136h9.067v2.243h-9.067V437.136z"/>
		</g>
	</g>
	<g style="opacity:0.61;">
		<path style="fill:#FFFFFF;" d="M156.756,478.878h1.607c1.263,0,2.114,0.812,2.114,1.974c0,1.161-0.851,1.973-2.114,1.973h-1.607
			V478.878z M158.34,482.464c1.049,0,1.725-0.665,1.725-1.612c0-0.947-0.677-1.613-1.725-1.613h-1.167v3.225H158.34z"/>
		<path style="fill:#FFFFFF;" d="M165.139,480.851c0-1.15,0.879-2.007,2.075-2.007c1.184,0,2.069,0.851,2.069,2.007
			c0,1.156-0.885,2.007-2.069,2.007C166.019,482.858,165.139,482.002,165.139,480.851z M168.866,480.851
			c0-0.942-0.705-1.635-1.652-1.635c-0.953,0-1.663,0.693-1.663,1.635c0,0.941,0.71,1.635,1.663,1.635
			C168.162,482.486,168.866,481.793,168.866,480.851z"/>
		<path style="fill:#FFFFFF;" d="M179.596,478.878l-1.331,3.947h-0.44l-1.156-3.366l-1.161,3.366h-0.434l-1.331-3.947h0.429
			l1.139,3.394l1.178-3.394h0.389l1.161,3.411l1.156-3.411H179.596z"/>
		<path style="fill:#FFFFFF;" d="M187.731,478.878v3.947h-0.344l-2.537-3.202v3.202h-0.417v-3.947h0.344l2.543,3.203v-3.203H187.731
			z"/>
		<path style="fill:#FFFFFF;" d="M193.093,478.878h0.417v3.586h2.21v0.361h-2.627V478.878z"/>
		<path style="fill:#FFFFFF;" d="M200.061,480.851c0-1.15,0.879-2.007,2.075-2.007c1.184,0,2.069,0.851,2.069,2.007
			c0,1.156-0.885,2.007-2.069,2.007C200.941,482.858,200.061,482.002,200.061,480.851z M203.788,480.851
			c0-0.942-0.705-1.635-1.652-1.635c-0.953,0-1.663,0.693-1.663,1.635c0,0.941,0.71,1.635,1.663,1.635
			C203.083,482.486,203.788,481.793,203.788,480.851z"/>
		<path style="fill:#FFFFFF;" d="M211.636,481.77h-2.199l-0.474,1.054h-0.434l1.804-3.947h0.412l1.804,3.947h-0.44L211.636,481.77z
			 M211.484,481.432l-0.947-2.12l-0.947,2.12H211.484z"/>
		<path style="fill:#FFFFFF;" d="M217.28,478.878h1.607c1.263,0,2.114,0.812,2.114,1.974c0,1.161-0.851,1.973-2.114,1.973h-1.607
			V478.878z M218.864,482.464c1.049,0,1.725-0.665,1.725-1.612c0-0.947-0.677-1.613-1.725-1.613h-1.167v3.225H218.864z"/>
		<path style="fill:#FFFFFF;" d="M234.041,481.77h-2.199l-0.474,1.054h-0.434l1.804-3.947h0.412l1.804,3.947h-0.44L234.041,481.77z
			 M233.889,481.432l-0.947-2.12l-0.947,2.12H233.889z"/>
		<path style="fill:#FFFFFF;" d="M239.685,478.878h0.417v3.586h2.21v0.361h-2.627V478.878z"/>
		<path style="fill:#FFFFFF;" d="M247.082,478.878h0.417v3.586h2.21v0.361h-2.627V478.878z"/>
		<path style="fill:#FFFFFF;" d="M260.449,479.239v1.551h2.041v0.361h-2.041v1.675h-0.417v-3.947h2.706v0.361H260.449z"/>
		<path style="fill:#FFFFFF;" d="M267.678,478.878h0.417v3.947h-0.417V478.878z"/>
		<path style="fill:#FFFFFF;" d="M273.456,478.878h0.417v3.586h2.21v0.361h-2.627V478.878z"/>
		<path style="fill:#FFFFFF;" d="M283.644,482.464v0.361h-2.791v-3.947h2.706v0.361h-2.289v1.404h2.041v0.355h-2.041v1.466H283.644z
			"/>
		<path style="fill:#FFFFFF;" d="M294.672,479.239v1.551h2.041v0.361h-2.041v1.675h-0.417v-3.947h2.706v0.361H294.672z"/>
		<path style="fill:#FFFFFF;" d="M301.5,480.851c0-1.15,0.879-2.007,2.075-2.007c1.184,0,2.069,0.851,2.069,2.007
			c0,1.156-0.885,2.007-2.069,2.007C302.379,482.858,301.5,482.002,301.5,480.851z M305.226,480.851
			c0-0.942-0.705-1.635-1.652-1.635c-0.953,0-1.663,0.693-1.663,1.635c0,0.941,0.71,1.635,1.663,1.635
			C304.522,482.486,305.226,481.793,305.226,480.851z"/>
		<path style="fill:#FFFFFF;" d="M313.351,482.825l-0.902-1.269c-0.102,0.011-0.203,0.017-0.316,0.017h-1.06v1.252h-0.417v-3.947
			h1.477c1.004,0,1.613,0.507,1.613,1.353c0,0.62-0.327,1.054-0.902,1.24l0.964,1.353H313.351z M313.328,480.231
			c0-0.632-0.417-0.992-1.207-0.992h-1.048v1.979h1.048C312.911,481.218,313.328,480.851,313.328,480.231z"/>
		<path style="fill:#FFFFFF;" d="M322.907,478.878v3.947h-0.4v-3.158l-1.551,2.656h-0.197l-1.551-2.639v3.14h-0.4v-3.947h0.344
			l1.714,2.926l1.697-2.926H322.907z"/>
		<path style="fill:#FFFFFF;" d="M330.744,481.77h-2.199l-0.473,1.054h-0.434l1.804-3.947h0.411l1.804,3.947h-0.44L330.744,481.77z
			 M330.592,481.432l-0.947-2.12l-0.947,2.12H330.592z"/>
		<path style="fill:#FFFFFF;" d="M336.957,479.239h-1.387v-0.361h3.192v0.361h-1.387v3.586h-0.417V479.239z"/>
		<path style="fill:#FFFFFF;" d="M343.063,482.346l0.164-0.321c0.282,0.276,0.784,0.479,1.302,0.479c0.739,0,1.06-0.31,1.06-0.699
			c0-1.083-2.43-0.417-2.43-1.877c0-0.581,0.451-1.083,1.455-1.083c0.446,0,0.908,0.13,1.224,0.35l-0.141,0.333
			c-0.338-0.22-0.733-0.327-1.083-0.327c-0.722,0-1.043,0.321-1.043,0.716c0,1.083,2.43,0.429,2.43,1.866
			c0,0.581-0.462,1.077-1.472,1.077C343.937,482.858,343.356,482.65,343.063,482.346z"/>
	</g>
</g>
<g>
</g>
<g>
	<polygon style="fill-rule:evenodd;clip-rule:evenodd;fill:#312782;" points="270.622,35.464 304.719,82.934 304.719,82.934 
		306.148,84.67 307.577,86.303 309.21,87.732 310.946,89.06 312.783,90.182 314.621,91.101 316.663,91.918 318.705,92.633 
		320.746,93.143 322.89,93.45 325.136,93.551 327.28,93.45 329.526,93.245 329.526,93.245 386.899,83.853 386.899,83.853 
		388.941,83.547 390.982,83.445 392.922,83.547 394.861,83.751 396.801,84.159 398.639,84.67 400.476,85.282 402.212,85.997 
		403.845,86.916 405.377,87.936 406.908,89.06 408.337,90.285 409.664,91.611 410.889,93.041 412.012,94.572 413.033,96.103 
		413.952,97.737 414.667,99.473 415.279,101.31 415.789,103.148 416.198,105.088 416.402,107.027 416.504,108.967 416.402,111.008 
		416.096,113.05 416.096,113.05 406.704,170.423 406.704,170.423 406.499,172.669 406.397,174.813 406.499,177.059 406.806,179.202 
		407.316,181.244 408.031,183.286 408.848,185.328 409.767,187.165 410.889,189.003 412.216,190.739 413.645,192.372 
		415.279,193.801 417.015,195.23 417.015,195.23 464.383,229.327 464.383,229.327 466.016,230.552 467.548,231.981 468.874,233.411 
		470.1,234.942 471.223,236.575 472.142,238.209 472.958,239.944 473.673,241.68 474.183,243.517 474.592,245.355 474.898,247.192 
		475,249.03 475,250.97 474.898,252.807 474.592,254.645 474.183,256.483 473.673,258.32 472.958,260.055 472.142,261.791 
		471.223,263.424 470.1,265.058 468.874,266.589 467.548,268.018 466.016,269.447 464.383,270.672 464.383,270.672 417.015,304.668 
		417.015,304.668 415.279,306.097 413.645,307.526 412.216,309.159 410.889,310.895 409.767,312.732 408.848,314.57 
		408.031,316.612 407.316,318.654 406.806,320.695 406.499,322.839 406.397,325.085 406.499,327.229 406.704,329.475 
		406.704,329.475 416.096,386.848 416.096,386.848 416.402,388.89 416.504,390.931 416.402,392.871 416.198,394.81 415.789,396.75 
		415.279,398.588 414.667,400.425 413.952,402.161 413.033,403.794 412.012,405.326 410.889,406.856 409.664,408.286 
		408.337,409.613 406.908,410.838 405.377,411.961 403.845,412.982 402.212,413.901 400.476,414.615 398.639,415.228 
		396.801,415.738 394.861,416.147 392.922,416.351 390.982,416.453 388.941,416.351 386.899,416.045 386.899,416.045 
		329.526,406.755 329.526,406.755 327.28,406.551 325.136,406.448 322.89,406.551 320.746,406.856 318.705,407.367 316.663,408.082 
		314.621,408.899 312.783,409.817 310.946,410.94 309.21,412.267 307.577,413.697 306.148,415.33 304.719,417.065 304.719,417.065 
		270.622,464.434 270.622,464.434 269.397,466.067 267.968,467.598 266.538,468.926 265.007,470.151 263.373,471.274 
		261.74,472.192 260.005,473.009 258.269,473.724 256.431,474.234 254.594,474.642 252.757,474.847 250.919,475.051 
		248.979,475.051 247.142,474.847 245.304,474.642 243.466,474.234 241.629,473.622 239.894,473.009 238.158,472.192 
		236.524,471.172 234.891,470.151 233.36,468.926 231.931,467.598 230.501,466.067 229.276,464.434 229.276,464.434 
		195.281,417.065 195.281,417.065 193.852,415.33 192.423,413.697 190.79,412.267 189.054,410.94 187.216,409.817 185.379,408.899 
		183.337,408.082 181.295,407.367 179.254,406.856 177.11,406.551 174.864,406.448 172.72,406.551 170.474,406.755 170.474,406.755 
		112.999,416.045 112.999,416.045 110.958,416.351 109.018,416.453 106.976,416.351 105.036,416.147 103.096,415.738 
		101.259,415.228 99.524,414.615 97.788,413.901 96.155,412.982 94.521,411.961 93.092,410.838 91.663,409.613 90.336,408.286 
		89.111,406.856 87.988,405.427 86.967,403.794 86.048,402.161 85.333,400.425 84.721,398.69 84.21,396.852 83.802,394.913 
		83.598,392.973 83.496,390.931 83.598,388.991 83.904,386.95 83.904,386.95 93.194,329.475 93.194,329.475 93.398,327.229 
		93.501,325.085 93.398,322.839 93.092,320.695 92.582,318.654 91.867,316.612 91.05,314.57 90.132,312.732 89.009,310.895 
		87.682,309.159 86.252,307.526 84.619,306.097 82.884,304.668 82.884,304.668 35.515,270.672 35.515,270.672 33.881,269.447 
		32.35,268.018 31.023,266.589 29.798,265.058 28.777,263.424 27.756,261.791 26.94,260.055 26.327,258.32 25.817,256.483 
		25.408,254.645 25.102,252.807 25,250.97 25,249.03 25.102,247.192 25.408,245.355 25.817,243.517 26.327,241.68 26.94,239.944 
		27.756,238.209 28.777,236.575 29.798,234.942 31.023,233.411 32.35,231.981 33.881,230.552 35.515,229.327 35.515,229.327 
		82.884,195.23 82.884,195.23 84.619,193.801 86.252,192.372 87.682,190.739 89.009,189.003 90.132,187.165 91.05,185.328 
		91.867,183.286 92.582,181.244 93.092,179.202 93.398,177.059 93.501,174.813 93.398,172.669 93.194,170.423 93.194,170.423 
		83.904,113.05 83.904,113.05 83.598,111.008 83.496,108.967 83.598,107.027 83.802,105.088 84.21,103.148 84.721,101.31 
		85.333,99.473 86.048,97.737 86.967,96.103 87.988,94.572 89.111,93.041 90.336,91.611 91.663,90.285 93.092,89.06 94.623,87.936 
		96.155,86.916 97.788,85.997 99.524,85.282 101.361,84.67 103.199,84.159 105.139,83.751 107.078,83.547 109.018,83.445 
		111.059,83.547 113.101,83.853 113.101,83.853 170.474,93.245 170.474,93.245 172.72,93.45 174.864,93.551 177.11,93.45 
		179.254,93.143 181.295,92.633 183.337,91.918 185.379,91.101 187.216,90.182 189.054,89.06 190.79,87.732 192.423,86.303 
		193.852,84.67 195.281,82.934 195.281,82.934 229.276,35.566 229.276,35.566 230.501,33.933 231.931,32.401 233.36,31.074 
		234.891,29.849 236.524,28.726 238.158,27.807 239.894,26.99 241.629,26.276 243.466,25.766 245.304,25.357 247.142,25.051 
		248.979,24.949 250.919,24.949 252.757,25.051 254.594,25.357 256.431,25.766 258.269,26.276 260.005,26.99 261.74,27.705 
		263.373,28.726 265.007,29.747 266.538,30.972 267.968,32.299 269.397,33.83 270.622,35.464 270.622,35.464 	"/>
	<polygon style="fill:#1D1D1B;" points="404.581,94.118 369.836,120.749 373.064,98.557 350.738,116.894 347.376,102.099 
		329.397,120.121 324.421,108.24 314.199,116.534 308.819,105.686 301.198,111.021 295.549,94.478 289.184,100.35 284.745,71.882 
		275.957,84.39 268.291,52.38 259.863,72.688 248.386,29.292 243.947,73.765 230.588,54.576 227.719,84.524 214.986,76.365 
		214.807,101.785 202.971,96.899 201.537,110.034 190.149,106.089 188.446,115.189 172.8,107.479 172.396,116.086 149.173,99.14 
		151.728,114.204 123.843,96.808 132.137,117.252 94.836,95.778 120.749,130.163 99.051,126.801 116.894,149.262 102.099,152.624 
		120.122,170.602 108.241,175.578 116.535,185.8 105.686,191.18 111.021,198.802 94.478,204.45 100.351,210.816 71.883,215.254 
		84.391,224.042 52.381,231.708 72.689,240.136 29.293,251.614 73.765,256.052 54.577,269.412 84.525,272.281 76.366,285.013 
		101.785,285.193 96.899,297.029 110.034,298.463 106.09,309.85 115.19,311.553 107.479,327.2 116.087,327.603 99.141,350.827 
		114.204,348.272 96.809,376.157 117.252,367.863 95.778,405.164 130.164,379.25 126.802,400.95 149.262,383.106 152.625,397.9 
		170.603,379.878 175.579,391.758 185.801,383.465 191.181,394.314 198.802,388.979 204.451,405.522 210.816,399.65 
		215.255,428.118 224.043,415.61 231.709,447.62 240.137,427.312 251.614,470.708 256.053,426.235 269.412,445.424 272.281,415.476 
		285.014,423.635 285.193,398.215 297.029,403.101 298.463,389.965 309.851,393.91 311.554,384.809 327.2,392.52 327.604,383.913 
		350.827,400.86 348.272,385.796 376.157,403.192 367.863,382.748 405.164,404.222 379.251,369.836 400.95,373.198 383.106,350.737 
		397.901,347.375 379.879,329.397 391.759,324.421 383.465,314.199 394.314,308.819 388.979,301.197 405.522,295.549 
		399.649,289.183 428.118,284.745 415.609,275.957 447.619,268.291 427.311,259.863 470.708,248.385 426.235,243.947 
		445.423,230.587 415.475,227.718 423.634,214.985 398.215,214.806 403.101,202.97 389.966,201.536 393.91,190.148 384.81,188.445 
		392.521,172.799 383.914,172.395 400.859,149.172 385.796,151.727 403.191,123.842 382.748,132.136 404.581,94.118 	"/>
	<path style="fill:#895929;" d="M136.067,289.242l-24.523,8.877l-2.017,8.473l28.692-11.567c0.18,0.404,0.314,0.762,0.448,1.165
		c0.404,1.032,0.852,2.017,1.345,3.049c0.134,0.358,0.313,0.806,0.537,1.165l-23.716,10.849l-5.021,11.657l31.427-16.991
		c0.179,0.403,0.404,0.717,0.539,1.121c0.537,0.897,1.03,1.838,1.569,2.735c0.224,0.404,0.448,0.762,0.672,1.165l-28.065,16.408
		l-12.508,18.023l44.025-28.872c0.224,0.313,0.448,0.628,0.672,0.986c0.538,0.807,1.076,1.569,1.659,2.332
		c0.224,0.313,0.494,0.672,0.763,1.03l-36.359,26.765l-13.359,21.788L156.6,326.05c0.269,0.314,0.448,0.582,0.717,0.897
		c0.672,0.762,1.39,1.569,2.017,2.331c0.314,0.313,0.583,0.717,0.941,1.031l-40.797,36.493l-17.44,30.082l62.227-62.271
		c0.269,0.269,0.583,0.582,0.852,0.852c0.672,0.582,1.301,1.255,1.928,1.838c0.313,0.269,0.627,0.582,0.941,0.852l-35.956,39.452
		l-2.197,17.126l43.084-52.229c0.358,0.269,0.628,0.493,0.941,0.762c0.852,0.628,1.659,1.345,2.555,2.017
		c0.359,0.27,0.763,0.539,1.121,0.807l-26.899,35.687l3.049,10.893l29.23-42.814c0.314,0.224,0.628,0.448,0.942,0.673
		c0.851,0.537,1.703,1.076,2.555,1.614c0.404,0.224,0.763,0.493,1.166,0.717l-15.736,25.778l4.394,8.429l16.677-31.203
		c0.359,0.179,0.672,0.404,0.987,0.538c0.986,0.493,1.883,0.941,2.868,1.435c0.448,0.179,0.852,0.358,1.3,0.582l-11.163,23.716
		l4.573,7.488l12.238-28.648c0.359,0.179,0.672,0.269,1.076,0.448c0.987,0.358,2.017,0.762,2.959,1.121
		c0.494,0.179,0.942,0.314,1.391,0.493l-9.191,24.747l4.707,11.747l10.356-34.612c0.404,0.135,0.762,0.224,1.166,0.314
		c0.941,0.269,1.928,0.582,2.914,0.851c0.448,0.09,0.897,0.27,1.345,0.359l-8.339,31.922l3.9,21.609l10.85-52.141
		c0.358,0.09,0.762,0.179,1.121,0.224c0.941,0.179,1.838,0.269,2.779,0.448c0.404,0.044,0.896,0.179,1.389,0.224l-6.859,45.102
		l5.962,24.926l7.353-69.266c0.359,0.045,0.763,0.045,1.121,0.089c0.987,0.045,2.017,0.179,3.049,0.224
		c0.448,0,0.897,0.045,1.39,0.045l-3.093,55.323l8.966,33.579l-0.045-88.768c0.359,0,0.717,0,1.121,0c0.448,0,0.852,0,1.3,0
		c0.448,0,0.852-0.09,1.301-0.09l2.51,54.204l10.491,13.628l-6.501-68.19c0.448-0.045,0.806-0.045,1.255-0.135
		c1.031-0.089,2.063-0.18,3.094-0.358c0.404-0.046,0.897-0.09,1.345-0.179l6.321,45.012l9.863,5.559l-9.684-51.603
		c0.359-0.089,0.763-0.134,1.166-0.269c0.942-0.135,1.839-0.359,2.825-0.583c0.448-0.044,0.941-0.179,1.345-0.269l7.263,29.993
		l9.056,2.87l-10.401-34.432c0.403-0.089,0.762-0.224,1.21-0.358c0.941-0.27,1.928-0.628,2.958-0.987
		c0.448-0.134,0.897-0.269,1.301-0.448l9.101,25.151l8.472,2.062l-11.88-29.32c0.359-0.179,0.763-0.314,1.121-0.493
		c1.032-0.448,2.017-0.807,3.004-1.256c0.448-0.179,0.852-0.359,1.3-0.583l11.118,24.344l11.612,4.976l-17.26-32.01
		c0.313-0.179,0.717-0.403,1.031-0.537c0.897-0.493,1.838-0.986,2.735-1.524c0.404-0.224,0.852-0.493,1.21-0.717l16.723,28.648
		l18.068,12.508l-29.276-44.608c0.359-0.224,0.673-0.448,0.986-0.672c0.763-0.494,1.525-1.031,2.287-1.569
		c0.358-0.27,0.717-0.538,1.075-0.807l27.124,36.897l21.833,13.359l-43.801-54.202c0.314-0.269,0.583-0.493,0.897-0.762
		c0.808-0.672,1.569-1.3,2.377-2.017c0.359-0.269,0.672-0.583,0.986-0.852l36.942,41.201l30.083,17.44l-62.72-62.675
		c0.269-0.269,0.582-0.583,0.851-0.852c0.583-0.628,1.211-1.255,1.839-1.882c0.269-0.314,0.582-0.672,0.941-0.987l39.811,36.404
		l17.125,2.242l-52.677-43.531c0.269-0.315,0.493-0.583,0.762-0.897c0.628-0.807,1.3-1.704,2.017-2.556
		c0.269-0.313,0.539-0.717,0.807-1.031l36.134,27.213l10.895-3.094l-43.263-29.544c0.224-0.313,0.493-0.672,0.717-1.03
		c0.493-0.807,1.032-1.615,1.569-2.421c0.224-0.404,0.493-0.763,0.717-1.121l26.227,15.96l8.429-4.393l-31.606-16.902
		c0.179-0.359,0.358-0.717,0.582-1.076c0.494-0.941,0.897-1.838,1.345-2.824c0.224-0.359,0.359-0.807,0.583-1.166l24.165,11.298
		l7.486-4.528l-29.096-12.419c0.179-0.404,0.27-0.762,0.448-1.165c0.359-0.941,0.763-1.973,1.121-2.958
		c0.179-0.448,0.314-0.852,0.494-1.301l25.195,9.326l11.747-4.707l-34.97-10.535c0.09-0.359,0.179-0.763,0.314-1.121
		c0.313-0.987,0.537-1.973,0.806-2.915c0.09-0.448,0.224-0.897,0.314-1.299l32.323,8.428l21.654-3.9l-52.543-10.939
		c0.09-0.448,0.135-0.807,0.269-1.256c0.135-0.851,0.314-1.703,0.404-2.644c0.045-0.448,0.179-0.897,0.224-1.345l45.505,6.949
		l24.926-5.963l-69.669-7.442c0.045-0.448,0.045-0.807,0.089-1.256c0.135-0.941,0.18-1.927,0.224-2.914
		c0-0.448,0.045-0.897,0.045-1.345l55.726,3.094l33.579-8.966l-89.17,0.089c0-0.448,0-0.806,0-1.255c0-0.448,0-0.852,0-1.3
		c0-0.448-0.045-0.852-0.045-1.3l54.515-2.466l13.674-10.491l-68.593,6.545c-0.045-0.403-0.045-0.851-0.09-1.299
		c-0.134-1.031-0.224-2.063-0.403-3.093c-0.046-0.404-0.09-0.852-0.135-1.3l45.37-6.366l5.514-9.863l-51.96,9.817
		c-0.089-0.448-0.179-0.897-0.269-1.299c-0.179-0.942-0.359-1.839-0.583-2.78c-0.089-0.358-0.179-0.806-0.314-1.255L396.81,215
		l2.869-9.056l-34.88,10.491c-0.089-0.359-0.224-0.808-0.359-1.166c-0.269-1.032-0.673-2.017-0.986-3.004
		c-0.179-0.404-0.269-0.806-0.448-1.255l25.599-9.236l2.017-8.472L360.9,205.361c-0.135-0.448-0.314-0.851-0.494-1.21
		c-0.403-1.031-0.851-2.017-1.299-2.959c-0.135-0.404-0.359-0.852-0.539-1.211l24.748-11.342l5.021-11.612l-32.503,17.484
		c-0.224-0.404-0.404-0.717-0.628-1.076c-0.493-0.941-0.941-1.838-1.524-2.735c-0.134-0.359-0.358-0.762-0.582-1.076l29.096-17.036
		l12.508-18.067l-45.057,29.589c-0.224-0.402-0.493-0.717-0.717-1.031c-0.537-0.763-1.076-1.524-1.614-2.286
		c-0.224-0.314-0.493-0.628-0.717-0.987l37.345-27.482l13.359-21.833l-54.695,44.203c-0.269-0.358-0.493-0.673-0.763-0.986
		c-0.672-0.808-1.345-1.569-2.062-2.331c-0.269-0.314-0.538-0.672-0.806-0.943l41.694-37.344l17.44-30.083l-63.168,63.214
		c-0.314-0.314-0.583-0.628-0.897-0.897c-0.583-0.628-1.256-1.256-1.839-1.793c-0.358-0.314-0.627-0.583-0.941-0.897l36.852-40.35
		l2.197-17.125l-43.936,53.216c-0.313-0.27-0.627-0.539-0.986-0.808c-0.852-0.717-1.658-1.3-2.51-1.973
		c-0.314-0.269-0.672-0.448-0.987-0.762l27.617-36.717l-3.049-10.895l-29.902,43.801c-0.404-0.224-0.718-0.494-1.121-0.718
		c-0.807-0.493-1.615-1.03-2.421-1.523c-0.314-0.224-0.718-0.448-1.076-0.628l16.364-26.899l-4.394-8.429l-17.215,32.279
		c-0.403-0.224-0.762-0.358-1.165-0.582c-0.897-0.494-1.838-0.942-2.824-1.435c-0.359-0.134-0.718-0.358-1.121-0.538l11.656-24.792
		l-4.573-7.486l-12.642,29.813c-0.404-0.179-0.852-0.359-1.211-0.493c-0.986-0.448-2.017-0.807-2.959-1.211
		c-0.448-0.089-0.852-0.269-1.255-0.448l9.593-25.823l-4.707-11.747l-10.669,35.687c-0.448-0.09-0.897-0.269-1.256-0.359
		c-0.986-0.269-1.973-0.628-2.869-0.806c-0.448-0.135-0.806-0.224-1.255-0.359l8.607-32.951l-3.9-21.654l-11.119,53.216
		c-0.404-0.09-0.852-0.179-1.3-0.269c-0.806-0.179-1.703-0.314-2.6-0.448c-0.404-0.046-0.852-0.135-1.3-0.224l7.038-46.133
		l-5.962-24.926l-7.443,70.252c-0.448-0.045-0.897-0.045-1.299-0.089c-0.987-0.135-1.973-0.179-2.96-0.224
		c-0.403,0-0.851-0.046-1.299-0.046l3.183-56.308l-8.966-33.579l0.044,89.709c-0.404,0-0.852,0-1.3,0c-0.404,0-0.807,0-1.21,0
		c-0.448,0-0.807,0-1.256,0l-2.51-55.009l-10.491-13.674l6.59,69.086c-0.403,0-0.897,0.046-1.345,0.09
		c-1.031,0.045-2.062,0.179-3.093,0.269c-0.359,0.044-0.808,0.135-1.256,0.18l-6.411-45.774l-9.863-5.514l9.863,52.318
		c-0.448,0.09-0.941,0.135-1.389,0.27c-0.897,0.134-1.838,0.314-2.69,0.538c-0.448,0.089-0.806,0.135-1.255,0.269l-7.488-30.71
		l-9.011-2.869l10.535,35.104c-0.404,0.089-0.808,0.269-1.256,0.359c-0.941,0.269-1.973,0.582-3.003,0.941
		c-0.404,0.089-0.763,0.269-1.166,0.358l-9.281-25.688l-8.473-2.017l12.015,29.813c-0.359,0.18-0.808,0.358-1.166,0.493
		c-1.032,0.404-2.017,0.807-3.049,1.256c-0.358,0.179-0.762,0.314-1.121,0.493l-11.342-24.748l-11.657-5.021l17.53,32.414
		c-0.404,0.224-0.808,0.448-1.211,0.672c-0.897,0.403-1.838,0.941-2.69,1.434c-0.403,0.179-0.717,0.404-1.075,0.583l-16.991-28.962
		l-18.023-12.508l29.455,44.922c-0.359,0.179-0.763,0.404-1.076,0.672c-0.808,0.493-1.569,1.031-2.286,1.569
		c-0.359,0.224-0.672,0.493-1.032,0.717l-27.303-37.121l-21.788-13.359l43.89,54.381c-0.314,0.269-0.672,0.538-1.032,0.806
		c-0.806,0.672-1.569,1.301-2.375,2.017c-0.314,0.27-0.583,0.539-0.897,0.808l-36.987-41.38l-30.082-17.44l62.764,62.72
		c-0.314,0.314-0.627,0.628-0.897,0.987c-0.672,0.582-1.255,1.166-1.838,1.838c-0.358,0.269-0.628,0.583-0.897,0.852l-39.856-36.404
		l-17.125-2.197l52.677,43.488c-0.269,0.313-0.537,0.627-0.807,0.986c-0.717,0.852-1.434,1.658-2.062,2.51
		c-0.269,0.359-0.493,0.672-0.762,0.987l-36.091-27.169l-10.893,3.049l43.083,29.454c-0.269,0.359-0.493,0.718-0.762,1.121
		c-0.538,0.807-1.031,1.57-1.569,2.421c-0.224,0.359-0.448,0.672-0.672,1.031l-26.047-15.871l-8.429,4.394l31.382,16.812
		c-0.179,0.358-0.404,0.762-0.628,1.121c-0.493,0.941-0.986,1.838-1.39,2.779c-0.224,0.359-0.448,0.807-0.628,1.165l-23.806-11.208
		l-7.488,4.573l28.738,12.238c-0.135,0.359-0.359,0.807-0.539,1.166c-0.403,1.031-0.807,2.062-1.166,3.048
		c-0.179,0.359-0.269,0.808-0.448,1.211l-24.747-9.191l-11.746,4.707l34.476,10.356c-0.089,0.448-0.269,0.806-0.358,1.255
		c-0.27,0.987-0.539,1.884-0.808,2.869c-0.135,0.448-0.224,0.807-0.313,1.256l-31.832-8.294l-21.608,3.9l51.915,10.76
		c-0.044,0.448-0.179,0.897-0.224,1.3c-0.224,0.941-0.404,1.884-0.493,2.78c-0.09,0.448-0.18,0.806-0.224,1.255l-44.833-6.814
		l-24.926,5.962l68.951,7.308c-0.045,0.404-0.089,0.852-0.179,1.3c-0.045,1.03-0.134,2.062-0.179,3.003
		c0,0.448-0.089,0.897-0.089,1.256l-54.919-3.049l-33.579,8.966l88.363-0.044c0,0.404,0,0.852,0,1.3c0,0.404,0,0.852,0,1.3
		c0,0.404,0,0.852,0,1.21l-53.619,2.466l-13.674,10.491l67.651-6.456c0.045,0.448,0.045,0.941,0.135,1.389
		c0.089,1.032,0.179,1.973,0.313,3.004c0.045,0.448,0.089,0.897,0.18,1.301l-44.429,6.276l-5.514,9.863l50.929-9.594
		c0.09,0.448,0.179,0.897,0.224,1.301c0.224,0.941,0.404,1.882,0.628,2.779c0.089,0.448,0.179,0.852,0.314,1.3l-29.41,7.173
		l-2.869,9.011l33.848-10.176c0.09,0.404,0.224,0.806,0.359,1.21c0.269,1.032,0.628,2.062,0.986,3.094
		C135.798,288.436,135.933,288.884,136.067,289.242L136.067,289.242z"/>
	<polygon style="fill:#FFEC00;" points="257.203,131.075 260.162,131.3 268.097,56.385 260.386,74.631 257.203,131.075 	"/>
	<polygon style="fill:#FFEC00;" points="269.129,132.42 271.728,132.869 283.923,74.811 276.167,86.019 269.129,132.42 	"/>
	<polygon style="fill:#FFEC00;" points="280.695,134.886 283.564,135.693 295.31,96.465 289.348,101.62 280.695,134.886 	"/>
	<path style="fill:#FFEC00;" d="M291.769,138.562c0.986,0.359,1.973,0.762,3.003,1.121l0.045-0.089l13.674-32.145l-6.949,4.663
		l-9.684,26.271L291.769,138.562L291.769,138.562z"/>
	<polygon style="fill:#FFEC00;" points="302.708,143.09 305.532,144.525 323.912,110.049 314.678,117.715 302.708,143.09 	"/>
	<polygon style="fill:#FFEC00;" points="313.019,148.784 315.44,150.308 346.912,104.266 329.741,121.346 313.019,148.784 	"/>
	<polygon style="fill:#FFEC00;" points="322.882,155.598 325.392,157.571 372.153,100.948 350.947,118.388 322.882,155.598 	"/>
	<polygon style="fill:#FFEC00;" points="332.206,163.534 334.046,165.327 400.71,98.572 369.283,122.826 332.206,163.534 	"/>
	<polygon style="fill:#FFEC00;" points="339.783,171.379 341.845,173.71 400.397,126.368 381.702,133.899 339.783,171.379 	"/>
	<polygon style="fill:#FFEC00;" points="347.315,180.794 348.929,183.08 398.155,150.756 384.885,153.177 347.315,180.794 	"/>
	<polygon style="fill:#FFEC00;" points="353.681,190.701 355.206,193.436 390.937,174.158 383.047,173.531 353.681,190.701 	"/>
	<polygon style="fill:#FFEC00;" points="359.107,201.192 360.406,204.151 392.506,191.195 384.302,189.625 359.107,201.192 	"/>
	<polygon style="fill:#FFEC00;" points="363.455,212.265 364.441,215.27 401.652,203.972 389.681,202.762 363.455,212.265 	"/>
	<polygon style="fill:#FFEC00;" points="366.682,223.653 367.265,226.433 421.96,216.121 397.796,216.076 366.682,223.653 	"/>
	<polygon style="fill:#FFEC00;" points="368.745,235.444 369.148,238.538 442.09,231.633 414.787,228.944 368.745,235.444 	"/>
	<polygon style="fill:#FFEC00;" points="369.687,247.549 369.687,248.849 463.789,248.803 424.65,245.038 369.687,247.549 	"/>
	<polygon style="fill:#FFEC00;" points="369.507,257.232 369.283,260.146 443.57,268.082 425.323,260.326 369.507,257.232 	"/>
	<polygon style="fill:#FFEC00;" points="368.207,269.203 367.803,271.847 425.144,283.907 413.936,276.152 368.207,269.203 	"/>
	<polygon style="fill:#FFEC00;" points="365.786,280.813 364.979,283.729 403.49,295.25 398.334,289.287 365.786,280.813 	"/>
	<polygon style="fill:#FFEC00;" points="362.199,292.067 361.078,295.026 392.506,308.431 387.844,301.482 362.199,292.067 	"/>
	<polygon style="fill:#FFEC00;" points="357.492,303.006 356.147,305.83 389.906,323.853 382.24,314.663 357.492,303.006 	"/>
	<polygon style="fill:#FFEC00;" points="351.798,313.362 350.229,315.783 395.689,346.897 378.608,329.726 351.798,313.362 	"/>
	<polygon style="fill:#FFEC00;" points="344.939,323.27 342.922,325.826 399.007,372.136 381.523,350.887 344.939,323.27 	"/>
	<polygon style="fill:#FFEC00;" points="336.96,332.595 335.12,334.478 401.382,400.696 377.084,369.268 336.96,332.595 	"/>
	<polygon style="fill:#FFEC00;" points="328.979,340.217 326.602,342.234 373.587,400.337 366.056,381.686 328.979,340.217 	"/>
	<polygon style="fill:#FFEC00;" points="319.475,347.749 317.188,349.318 349.198,398.14 346.777,384.869 319.475,347.749 	"/>
	<polygon style="fill:#FFEC00;" points="309.477,354.159 306.743,355.684 325.796,390.876 326.378,383.031 309.477,354.159 	"/>
	<polygon style="fill:#FFEC00;" points="298.942,359.494 295.937,360.75 308.76,392.446 310.329,384.286 298.942,359.494 	"/>
	<polygon style="fill:#FFEC00;" points="287.823,363.798 284.864,364.785 295.937,401.593 297.193,389.622 287.823,363.798 	"/>
	<polygon style="fill:#FFEC00;" points="276.391,366.981 273.566,367.564 283.833,421.902 283.878,397.736 276.391,366.981 	"/>
	<polygon style="fill:#FFEC00;" points="264.555,369.044 261.462,369.402 268.321,442.076 270.967,414.773 264.555,369.044 	"/>
	<polygon style="fill:#FFEC00;" points="252.406,369.985 251.106,369.985 251.15,463.775 254.916,424.636 252.406,369.985 	"/>
	<polygon style="fill:#FFEC00;" points="242.767,369.806 239.718,369.581 231.873,443.601 239.629,425.309 242.767,369.806 	"/>
	<polygon style="fill:#FFEC00;" points="230.752,368.505 227.973,368.057 216.047,425.174 223.803,413.966 230.752,368.505 	"/>
	<polygon style="fill:#FFEC00;" points="219.096,366.084 216.182,365.233 204.66,403.475 210.622,398.365 219.096,366.084 	"/>
	<polygon style="fill:#FFEC00;" points="207.753,362.543 204.794,361.422 191.524,392.49 198.473,387.829 207.753,362.543 	"/>
	<polygon style="fill:#FFEC00;" points="196.769,357.836 193.901,356.401 176.057,389.89 185.292,382.269 196.769,357.836 	"/>
	<polygon style="fill:#FFEC00;" points="186.413,352.142 183.858,350.528 153.058,395.674 170.229,378.637 186.413,352.142 	"/>
	<polygon style="fill:#FFEC00;" points="176.415,345.282 173.86,343.265 127.818,398.992 149.068,381.552 176.415,345.282 	"/>
	<polygon style="fill:#FFEC00;" points="167.046,337.303 165.118,335.465 99.26,401.368 130.687,377.113 167.046,337.303 	"/>
	<polygon style="fill:#FFEC00;" points="159.335,329.278 157.317,326.946 99.574,373.572 118.269,366.084 159.335,329.278 	"/>
	<polygon style="fill:#FFEC00;" points="151.803,319.818 150.144,317.486 101.815,349.228 115.085,346.762 151.803,319.818 	"/>
	<polygon style="fill:#FFEC00;" points="145.348,309.776 143.779,307.041 109.078,325.826 116.924,326.408 145.348,309.776 	"/>
	<polygon style="fill:#FFEC00;" points="140.013,299.24 138.667,296.191 107.509,308.744 115.668,310.313 140.013,299.24 	"/>
	<polygon style="fill:#FFEC00;" points="135.663,288.077 134.677,284.983 98.363,295.967 110.333,297.223 135.663,288.077 	"/>
	<polygon style="fill:#FFEC00;" points="132.436,276.465 131.808,273.686 78.054,283.818 102.174,283.907 132.436,276.465 	"/>
	<polygon style="fill:#FFEC00;" points="130.418,264.54 130.105,261.536 57.88,268.351 85.183,270.996 130.418,264.54 	"/>
	<polygon style="fill:#FFEC00;" points="129.611,252.435 129.611,251.135 36.226,251.18 75.32,254.901 129.611,252.435 	"/>
	<polygon style="fill:#FFEC00;" points="129.835,242.706 130.015,239.703 56.4,231.902 74.692,239.613 129.835,242.706 	"/>
	<polygon style="fill:#FFEC00;" points="131.226,230.692 131.718,227.912 74.827,216.076 86.035,223.833 131.226,230.692 	"/>
	<polygon style="fill:#FFEC00;" points="133.781,218.99 134.588,216.121 96.525,204.689 101.636,210.652 133.781,218.99 	"/>
	<polygon style="fill:#FFEC00;" points="137.412,207.782 138.577,204.734 107.509,191.509 112.171,198.458 137.412,207.782 	"/>
	<polygon style="fill:#FFEC00;" points="142.299,196.798 143.688,194.019 110.109,176.087 117.731,185.322 142.299,196.798 	"/>
	<polygon style="fill:#FFEC00;" points="148.082,186.532 149.651,184.111 104.325,153.088 121.363,170.259 148.082,186.532 	"/>
	<polygon style="fill:#FFEC00;" points="155.076,176.669 157.138,174.158 101.009,127.847 118.447,149.053 155.076,176.669 	"/>
	<polygon style="fill:#FFEC00;" points="163.145,167.434 164.983,165.596 98.632,99.29 122.886,130.717 163.145,167.434 	"/>
	<polygon style="fill:#FFEC00;" points="171.081,159.901 173.457,157.884 126.428,99.603 133.916,118.298 171.081,159.901 	"/>
	<polygon style="fill:#FFEC00;" points="180.72,152.46 183.006,150.891 150.772,101.845 153.238,115.115 180.72,152.46 	"/>
	<polygon style="fill:#FFEC00;" points="190.717,146.184 193.407,144.749 174.174,109.062 173.592,116.953 190.717,146.184 	"/>
	<polygon style="fill:#FFEC00;" points="201.208,140.939 204.257,139.683 191.256,107.493 189.686,115.698 201.208,140.939 	"/>
	<polygon style="fill:#FFEC00;" points="212.326,136.724 215.33,135.783 204.033,98.347 202.777,110.318 212.326,136.724 	"/>
	<polygon style="fill:#FFEC00;" points="223.803,133.631 226.493,133.093 216.182,78.039 216.092,102.204 223.803,133.631 	"/>
	<polygon style="fill:#FFEC00;" points="235.55,131.613 238.642,131.344 231.648,57.909 229.003,85.212 235.55,131.613 	"/>
	<polygon style="fill:#FFEC00;" points="247.654,130.851 248.864,130.851 248.819,36.166 245.098,75.349 247.654,130.851 	"/>
	<path style="fill:#FFEC00;" d="M332.67,172.276c-43.038-45.684-115.083-47.836-160.857-4.932
		c-45.728,42.994-47.881,114.949-4.931,160.677c43.038,45.684,115.083,47.836,160.857,4.932
		C373.467,289.959,375.62,218.004,332.67,172.276L332.67,172.276z"/>
	<path style="fill:#312782;" d="M330.503,174.427c-41.828-44.383-111.945-46.58-156.463-4.887
		c-44.429,41.829-46.625,111.901-4.842,156.33c41.829,44.383,111.945,46.58,156.464,4.887
		C370.09,288.929,372.286,218.856,330.503,174.427L330.503,174.427z M308.864,193.317L308.864,193.317
		c31.473,32.459,30.711,84.598-2.062,116.025c-32.503,31.473-84.687,30.665-116.114-2.062
		c-31.473-32.458-30.711-84.598,2.062-116.025C225.253,159.782,277.437,160.589,308.864,193.317L308.864,193.317z M158.557,228.271
		L158.557,228.271l0.807-2.6c1.301,0.404,2.555-0.09,3.228-2.108c0.628-2.151-0.134-3.048-0.986-3.272
		c-0.224-0.09-0.583-0.09-0.941,0.045c-0.672,0.269-0.987,0.941-1.256,1.345l-1.434,2.466c-1.256,2.107-2.914,2.555-4.483,2.107
		c-2.152-0.672-3.587-2.779-2.556-6.232c0.539-1.838,1.615-3.048,2.466-3.587c0.852-0.538,1.884-0.717,3.318-0.403l-0.762,2.555
		c-0.539-0.179-1.166-0.044-1.569,0.179c-0.493,0.269-1.032,0.852-1.301,1.749c-0.583,1.882,0.135,2.735,0.852,3.003
		c0.404,0.045,0.672,0.045,0.986-0.135c0.269-0.089,0.404-0.134,0.897-0.986l1.704-2.825c1.255-2.062,3.003-2.644,4.617-2.151
		c2.197,0.673,3.766,2.914,2.645,6.68C163.579,227.823,160.978,228.944,158.557,228.271L158.557,228.271z M170.662,203.001
		L170.662,203.001c0.539-0.897,0.583-1.838,0.135-2.914c-0.359-0.896-1.165-1.928-2.421-2.69c-2.869-1.749-5.2-0.897-6.141,0.628
		c-0.897,1.524-0.583,3.989,2.331,5.738C165.552,204.391,168.959,205.78,170.662,203.001L170.662,203.001z M172.59,204.256
		L172.59,204.256c-2.197,3.587-6.321,3.856-9.549,1.928c-1.523-0.941-2.644-2.331-3.228-3.631c-0.762-1.884-0.672-3.766,0.583-5.784
		c2.242-3.811,6.634-3.497,9.415-1.838C172.501,196.545,175.011,200.221,172.59,204.256L172.59,204.256z M172.679,181.99
		L172.679,181.99l1.973-1.883l6.367,6.545c1.121,1.165,2.466,1.256,3.766,0c0.717-0.717,0.941-1.524,0.851-2.197
		c-0.045-0.448-0.179-0.852-0.986-1.659l-6.187-6.411l1.973-1.927l6.545,6.769c1.839,1.883,1.839,4.483-0.762,6.994
		c-1.659,1.614-3.094,2.017-4.304,1.973c-0.942-0.09-1.749-0.448-2.736-1.389L172.679,181.99L172.679,181.99z M199.968,175.729
		L199.968,175.729l-5.918-9.55l-3.497,2.152l-1.166-1.884l9.235-5.784l1.165,1.884l-3.407,2.151l5.963,9.505L199.968,175.729
		L199.968,175.729z M214.807,168.331L214.807,168.331l-4.528-12.643l2.555-0.896l1.839,4.976l5.021-1.838l-1.838-4.931l2.645-0.986
		l4.528,12.686l-2.601,0.897l-1.972-5.559l-5.067,1.749l2.017,5.65L214.807,168.331L214.807,168.331z M246.832,156.047
		L246.832,156.047l3.587,0.224l-1.39-5.918L246.832,156.047L246.832,156.047z M242.259,160.71L242.259,160.71l5.38-13.136
		l3.004,0.134l3.855,13.719l-2.914-0.179l-0.672-2.825l-4.887-0.269l-1.076,2.734L242.259,160.71L242.259,160.71z M264.973,162.457
		L264.973,162.457l3.049-13.045l9.459,2.152l-0.493,2.196l-6.769-1.569l-0.672,3.183l5.648,1.345l-0.493,2.151l-5.694-1.345
		l-1.299,5.56L264.973,162.457L264.973,162.457z M289.079,162.099L289.079,162.099l2.69,1.255c1.255,0.583,2.331,0.135,2.779-0.806
		c0.269-0.493,0.224-1.256-0.134-1.793c-0.179-0.27-0.359-0.404-0.987-0.718l-2.869-1.299L289.079,162.099L289.079,162.099z
		 M283.385,167.793L283.385,167.793l5.604-12.284l5.65,2.601c2.644,0.986,3.452,3.362,2.555,5.245
		c-0.717,1.659-2.331,2.332-4.035,1.793c0.628,0.314,1.121,0.897,1.256,1.435c0.224,0.538,0.224,1.03-0.09,1.927l-0.762,2.242
		c-0.179,0.539-0.269,1.121-0.179,1.525l-2.601-1.165c-0.045-1.21,0.718-2.153,0.942-3.273c0.045-0.313,0.089-0.582,0.089-0.897
		c-0.089-0.806-0.538-1.479-1.39-1.882l-2.242-1.032l-2.197,4.887L283.385,167.793L283.385,167.793z M302.304,177.536
		L302.304,177.536l8.025-10.804l2.286,1.659l-8.07,10.804L302.304,177.536L302.304,177.536z M321.447,189.387L321.447,189.387
		l1.749,2.108c-2.466,1.882-5.604,0.986-7.531-1.211c-2.377-2.69-2.243-6.68,1.21-9.728c2.062-1.749,6.232-3.587,9.594,0.269
		c1.345,1.524,1.749,3.003,1.659,4.214c-0.045,1.03-0.404,1.973-1.301,3.003l-1.793-1.883c0.897-1.211,0.897-2.6-0.178-3.855
		c-1.256-1.435-3.542-1.839-6.098,0.402c-2.555,2.242-2.51,4.618-1.21,6.098c0.672,0.806,1.658,1.165,2.466,1.121
		C320.416,189.835,321.133,189.655,321.447,189.387L321.447,189.387z M331.833,203.031L331.833,203.031l1.749,3.138l4.303-4.305
		L331.833,203.031L331.833,203.031z M325.332,201.596L325.332,201.596l14.122-2.421l1.48,2.645l-9.594,10.58l-1.39-2.51l2.062-2.151
		l-2.331-4.259l-2.958,0.582L325.332,201.596L325.332,201.596z M334.478,222.144L334.478,222.144l12.867-3.9l0.806,2.6l-7.129,8.025
		l8.743-2.6l0.806,2.6l-12.912,3.856l-0.851-2.735l7.127-7.89l-8.652,2.601L334.478,222.144L334.478,222.144z M162.353,288.509
		L162.353,288.509l0.941,2.062c0.672,1.524,1.928,1.884,2.959,1.39c1.031-0.403,1.749-1.523,1.076-3.048l-0.986-2.152
		L162.353,288.509L162.353,288.509z M154.912,288.869L154.912,288.869l12.284-5.559l2.286,5.111c1.165,2.6,0.269,4.886-2.062,5.962
		c-1.032,0.448-2.152,0.539-3.004,0.269c-1.076-0.269-2.151-1.03-2.914-2.735l-1.121-2.51l-4.348,1.973L154.912,288.869
		L154.912,288.869z M167.465,308.191L167.465,308.191c0.628,0.852,1.479,1.345,2.645,1.345c0.986,0.044,2.196-0.269,3.452-1.076
		c2.779-1.928,2.914-4.394,1.928-5.873c-0.987-1.48-3.318-2.197-6.098-0.269C168.317,302.991,165.627,305.456,167.465,308.191
		L167.465,308.191z M165.581,309.401L165.581,309.401c-2.42-3.452-0.897-7.307,2.152-9.459c1.48-0.986,3.273-1.48,4.707-1.434
		c1.973,0.045,3.676,0.897,5.021,2.868c2.466,3.677,0.448,7.577-2.242,9.37C172.665,312.45,168.182,313.257,165.581,309.401
		L165.581,309.401z M175.579,321.506L175.579,321.506l9.37-9.684l2.062,1.928l-7.846,8.025l4.707,4.528l-1.614,1.658
		L175.579,321.506L175.579,321.506z M186.563,331.548L186.563,331.548l8.205-10.625l2.242,1.703l-8.205,10.715L186.563,331.548
		L186.563,331.548z M206.513,338.766L206.513,338.766l2.421,1.346c-1.659,2.555-4.932,2.868-7.487,1.479
		c-3.093-1.659-4.438-5.425-2.242-9.504c1.255-2.332,4.528-5.559,9.056-3.094c1.749,0.941,2.645,2.151,3.049,3.362
		c0.314,0.986,0.314,2.017-0.179,3.272l-2.377-1.121c0.448-1.524-0.089-2.779-1.524-3.541c-1.658-0.897-3.9-0.494-5.558,2.466
		c-1.615,3.004-0.718,5.245,0.986,6.142c0.986,0.539,2.017,0.539,2.69,0.179C205.796,339.573,206.333,339.08,206.513,338.766
		L206.513,338.766z M216.196,347.822L216.196,347.822l3.812-12.912l9.548,2.87l-0.582,2.107l-6.86-2.017l-0.852,2.825l6.097,1.749
		l-0.672,2.152l-6.097-1.749l-1.076,3.542l7.039,2.017l-0.717,2.242L216.196,347.822L216.196,347.822z M250.942,349.257
		L250.942,349.257l2.734-0.178c0.045,1.345,1.032,2.375,3.094,2.196c2.197-0.134,2.779-1.165,2.734-2.017
		c0-0.269-0.135-0.582-0.359-0.897c-0.538-0.537-1.255-0.537-1.703-0.672l-2.87-0.448c-2.331-0.448-3.407-1.793-3.497-3.496
		c-0.179-2.197,1.345-4.259,4.842-4.483c1.973-0.179,3.452,0.358,4.304,0.941c0.763,0.672,1.345,1.524,1.524,2.959l-2.645,0.179
		c-0.045-0.537-0.313-1.032-0.762-1.39c-0.448-0.404-1.121-0.673-2.108-0.539c-1.927,0.09-2.51,1.032-2.42,1.839
		c0.045,0.358,0.134,0.672,0.403,0.851c0.224,0.224,0.314,0.359,1.3,0.494l3.273,0.582c2.331,0.448,3.452,1.884,3.631,3.542
		c0.135,2.286-1.434,4.528-5.38,4.796C253.139,353.786,251.121,351.722,250.942,349.257L250.942,349.257z M272.505,350.916
		L272.505,350.916l-3.631-12.956l9.594-2.645l0.582,2.197l-6.859,1.882l0.806,2.87l6.097-1.793l0.583,2.152l-6.097,1.703l1.03,3.587
		l6.949-1.972l0.673,2.242L272.505,350.916L272.505,350.916z M290.977,336.479L290.977,336.479l2.644-1.345
		c1.256-0.628,1.524-1.749,1.121-2.69c-0.313-0.582-0.897-0.986-1.569-1.03c-0.313,0-0.537,0-1.21,0.358l-2.735,1.39
		L290.977,336.479L290.977,336.479z M291.963,344.325L291.963,344.325l-6.232-11.88l5.47-2.869c2.466-1.434,4.752-0.582,5.783,1.3
		c0.808,1.569,0.359,3.318-1.075,4.259c0.672-0.269,1.345-0.313,1.927-0.089c0.539,0.134,0.897,0.404,1.435,1.255l1.299,1.973
		c0.314,0.493,0.763,0.897,1.076,1.076l-2.51,1.255c-0.986-0.672-1.301-1.839-2.062-2.69c-0.135-0.224-0.359-0.404-0.628-0.583
		c-0.628-0.493-1.434-0.538-2.286-0.045l-2.197,1.076l2.466,4.707L291.963,344.325L291.963,344.325z M310.209,333.476
		L310.209,333.476l-11.745-8.025l2.376-1.749l8.339,6.143l-3.677-9.729l2.421-1.749l4.439,13.495L310.209,333.476L310.209,333.476z
		 M320.342,325.182L320.342,325.182l-9.505-9.594l2.062-2.017l9.46,9.639L320.342,325.182L320.342,325.182z M330.205,306.353
		L330.205,306.353l1.703-2.197c2.332,2.017,2.152,5.335,0.448,7.666c-2.062,2.825-6.052,3.631-9.773,0.897
		c-2.152-1.524-4.887-5.245-1.838-9.415c1.165-1.569,2.51-2.331,3.72-2.51c1.031-0.18,2.062-0.045,3.229,0.582l-1.435,2.197
		c-1.39-0.628-2.735-0.313-3.676,1.032c-1.121,1.569-1.076,3.855,1.659,5.828c2.78,2.017,5.066,1.434,6.232-0.089
		c0.672-0.942,0.762-1.928,0.537-2.691C330.922,307.204,330.473,306.622,330.205,306.353L330.205,306.353z M340.516,298.014
		L340.516,298.014l-12.284-5.558l4.079-9.012l2.017,0.897l-2.87,6.501l2.736,1.256l2.555-5.783l2.062,0.897l-2.646,5.783
		l3.362,1.525l3.004-6.591l2.151,0.897L340.516,298.014L340.516,298.014z"/>
	<path style="fill:#1D533C;" d="M222.091,268.671c1.957-3.47,4.546-6.908,7.914-10.167l-0.096,0.01l-3.367-1.819
		c-1.231-0.662-2.473-1.43-3.726-2.292c-2.631,0.472-16.059,4.51-25.141,16.149c-4.736,6.088-7.378,12.228-7.926,18.41l0.253,0.262
		c3.189-6.055,7.735-11.249,13.566-14.856C209.156,270.911,215.534,268.955,222.091,268.671L222.091,268.671z M249.843,265.633
		L249.843,265.633c-6.382-0.085-12.844-2.414-18.034-7.112c-20.126,18.418-13.057,42.908-10.518,47.6
		c0.109-0.083,0.165-1.09,0.178-3.028c0.096-18.455,10.802-31.079,21.372-32.663l0.248,0.256c-0.163,0.918-0.197,8.034-0.107,21.351
		c0.115,16.794-1.947,28.236-16.249,29.179l-3.049,0.2l-0.264,0.032c8.494,3.153,17.477,4.722,26.433,4.722
		c8.955,0,17.909-1.569,26.403-4.722l-0.264-0.032l-3.049-0.2c-14.303-0.943-16.365-12.385-16.249-29.179
		c0.091-13.317,0.056-20.433-0.107-21.351l0.248-0.256c10.57,1.584,21.275,14.208,21.372,32.663
		c0.013,1.938,0.069,2.945,0.178,3.028c2.538-4.693,9.608-29.183-10.519-47.6C262.676,263.219,256.225,265.548,249.843,265.633
		L249.843,265.633z M248.568,201.958L248.568,201.958c0.022,3.249,0.106,15.498,0.063,16.055c0,0,0.01,0,0.01-0.01l1.168-2.555
		l1.157,2.555c0,0.01,0.012,0.01,0.012,0.01c-0.043-0.557,0.041-12.806,0.062-16.055H248.568L248.568,201.958z M277.611,268.671
		L277.611,268.671c6.556,0.283,12.935,2.24,18.522,5.698c5.831,3.606,10.377,8.8,13.566,14.856l0.253-0.262
		c-0.548-6.182-3.189-12.323-7.925-18.41c-9.082-11.639-22.51-15.676-25.141-16.149c-1.253,0.861-2.495,1.629-3.726,2.292
		l-3.368,1.819l-0.095-0.01C273.064,261.763,275.653,265.201,277.611,268.671L277.611,268.671z M269.308,257.386L269.308,257.386
		l0.137,0.01l3.052-1.651c10.072-4.731,21.016-17.275,22.974-33.687c1.147-9.662-2.01-18.472-2.347-19.146l-1.168-2.375
		l-0.252,0.263c0.653,5.835-0.621,25.549-15.018,33.676c0.232,1.42,0.358,2.86,0.358,4.321c0,6.036-2.105,12.302-6.946,17.737
		C269.834,256.828,269.572,257.112,269.308,257.386L269.308,257.386z M252.63,224.505L252.63,224.505
		c3.766-0.493,7.308-2.108,10.087-4.528c5.828,9.773,4.752,24.074-4.841,28.648c0,0.582,0,1.121,0,1.748v0.359
		c0,5.783-1.076,10.715-3.586,13.314c0.269-0.089,0.672-0.179,0.806-0.179c5.649-1.3,10.311-4.08,14.078-8.294
		c11.432-12.912,6.769-30.441-4.304-37.704c1.569-1.838,2.869-4.035,3.676-6.41l-2.51-0.897c-0.762,2.242-1.928,4.259-3.452,6.007
		c-1.166-0.538-2.287-0.986-3.453-1.39c0.807,0.852,1.48,1.704,2.197,2.601c-2.601,2.331-5.918,3.9-9.459,4.348
		c-0.672-1.793-1.3-3.587-2.063-5.469v5.604c-0.269,0-0.493,0-0.762,0c-4.079-0.18-7.935-1.793-10.849-4.394
		c0.717-0.941,1.479-1.838,2.286-2.69c-1.211,0.404-2.377,0.852-3.542,1.435c-1.48-1.615-2.69-3.587-3.452-5.739l-2.241,0.852
		c0.851,2.286,2.062,4.348,3.541,6.052c-11.117,7.262-15.871,24.882-4.393,37.793c3.81,4.213,8.473,6.994,14.077,8.294
		c0.179,0,0.537,0.089,0.806,0.179c-2.466-2.6-3.542-7.531-3.542-13.314v-0.359c0-0.627,0-1.165,0-1.748
		c-9.639-4.573-10.669-18.92-4.886-28.783c3.451,3.049,7.89,4.842,12.731,4.887c0.046,0,0.179,0,0.224,0v39.766
		c4.214,0,6.726-5.157,6.591-14.123C256.352,240.331,255.231,232.843,252.63,224.505L252.63,224.505z M230.318,257.386
		L230.318,257.386c-0.264-0.274-0.526-0.557-0.79-0.852c-3.431-3.848-5.483-8.106-6.388-12.417
		c-0.379-1.777-0.558-3.554-0.558-5.321c0-1.461,0.127-2.902,0.358-4.321c-14.281-8.064-15.65-27.525-15.028-33.539
		c0-0.042,0.011-0.095,0.011-0.137l-0.252-0.263l-1.168,2.375c-0.337,0.674-3.494,9.484-2.348,19.146
		c1.958,16.412,12.903,28.956,22.974,33.687l3.052,1.651L230.318,257.386L230.318,257.386z"/>
	<path style="fill:#009540;" d="M249.83,216.77c-4.664,11.88-6.514,20.682-6.621,33.729c-0.074,8.979,2.41,14.12,6.621,14.12V216.77
		L249.83,216.77z M207.838,200.441L207.838,200.441c-3.357,10.179-2.147,21.88,3.294,31.165c2.956,5.036,7.03,9.325,11.934,12.511
		c-0.379-1.777-0.558-3.554-0.558-5.321c0-1.461,0.127-2.902,0.358-4.321c-14.281-8.064-15.65-27.525-15.028-33.539
		c0-0.042,0.011-0.095,0.011-0.137L207.838,200.441L207.838,200.441z M291.863,200.441L291.863,200.441l-0.01,0.358
		c0,0.041,0.01,0.094,0.01,0.137c0.622,6.014-0.747,25.475-15.028,33.539c0.232,1.42,0.358,2.86,0.358,4.321
		c0,1.767-0.179,3.544-0.558,5.321c4.905-3.186,8.978-7.475,11.935-12.511C294.01,222.321,295.22,210.62,291.863,200.441
		L291.863,200.441z M240.41,215.445L240.41,215.445c-14.944,4.184-23.247,25.318-9.955,40.269c3.767,4.227,8.461,6.971,14.091,8.243
		c0.126,0.031,0.516,0.146,0.81,0.231c-1.579-1.63-2.651-4.175-3.188-7.298c-8.587-4.006-13.923-12.806-13.471-22.289
		C229.076,226.643,233.496,219.419,240.41,215.445L240.41,215.445z M259.216,215.445L259.216,215.445
		c6.914,3.974,11.334,11.198,11.713,19.156c0.452,9.483-4.884,18.284-13.471,22.289c-0.537,3.123-1.61,5.667-3.188,7.298
		c0.295-0.085,0.684-0.2,0.811-0.231c5.63-1.272,10.324-4.016,14.091-8.243C282.463,240.763,274.16,219.629,259.216,215.445
		L259.216,215.445z"/>
	<path style="fill:#E20613;" d="M251.041,201.958c0-0.074,0-0.158,0-0.221l5.199-7.959l-6.43-19.714l-6.44,19.714l5.198,7.959
		c0,0.063,0,0.147,0,0.221H251.041L251.041,201.958z M268.551,211.639L268.551,211.639l7.935-6.151l-0.872-20.722l-11.619,17.106
		l2.157,8.759L268.551,211.639L268.551,211.639z M233.549,210.924L233.549,210.924c-0.031-0.074-0.063-0.146-0.094-0.22l2.178-8.833
		l-11.619-17.106l-0.873,20.722l7.977,6.183c0.021,0.042,0.031,0.084,0.052,0.125L233.549,210.924L233.549,210.924z"/>
</g>
</svg>
